<svg width="54" height="36" viewBox="0 0 54 36" fill="none" xmlns="http://www.w3.org/2000/svg">
<rect width="54" height="36" rx="4" fill="#E2F5FC"/>
<path d="M26.88 27.76C26.4533 27.76 26.0933 27.6133 25.8 27.32C25.5067 27.0267 25.36 26.6533 25.36 26.2V19.92H19.08C18.6533 19.92 18.2933 19.7733 18 19.48C17.7067 19.1867 17.56 18.8133 17.56 18.36C17.56 17.9333 17.7067 17.5733 18 17.28C18.2933 16.96 18.6533 16.8 19.08 16.8H25.36V10.52C25.36 10.0933 25.5067 9.73333 25.8 9.44C26.0933 9.14667 26.4533 9 26.88 9C27.3333 9 27.7067 9.14667 28 9.44C28.2933 9.73333 28.44 10.0933 28.44 10.52V16.8H34.72C35.1467 16.8 35.5067 16.96 35.8 17.28C36.12 17.5733 36.28 17.9333 36.28 18.36C36.28 18.8133 36.12 19.1867 35.8 19.48C35.5067 19.7733 35.1467 19.92 34.72 19.92H28.44V26.2C28.44 26.6533 28.2933 27.0267 28 27.32C27.7067 27.6133 27.3333 27.76 26.88 27.76Z" fill="#555555"/>
</svg>
