<svg width="54" height="36" viewBox="0 0 54 36" fill="none" xmlns="http://www.w3.org/2000/svg">
<rect width="54" height="36" rx="4" fill="#3B5998"/>
<path d="M27 33.0215C35.2843 33.0215 42 26.3009 42 18.0107C42 9.72054 35.2843 3 27 3C18.7157 3 12 9.72054 12 18.0107C12 26.3009 18.7157 33.0215 27 33.0215Z" fill="#3B5998"/>
<path d="M30.7719 18.5992H28.0953V28.412H24.04V18.5992H22.1113V15.1506H24.04V12.919C24.04 11.3232 24.7975 8.82422 28.1314 8.82422L31.1353 8.83679V12.1842H28.9557C28.5982 12.1842 28.0955 12.363 28.0955 13.1242V15.1538H31.1262L30.7719 18.5992Z" fill="white"/>
</svg>
