<svg width="54" height="36" viewBox="0 0 54 36" fill="none" xmlns="http://www.w3.org/2000/svg">
<rect width="54" height="36" rx="4" fill="#CE4F41"/>
<path d="M27.5 14.0528V18.1866H33.4409C32.5736 20.5924 30.2384 22.3204 27.5 22.3204C24.0266 22.3204 21.2 19.5383 21.2 16.1197C21.2 12.701 24.0266 9.91896 27.5 9.91896C29.0057 9.91896 30.4547 10.4501 31.5803 11.4154L34.3397 8.29851C32.4497 6.67806 30.0221 5.78516 27.5 5.78516C21.7103 5.78516 17 10.4212 17 16.1197C17 21.8181 21.7103 26.4542 27.5 26.4542C33.2897 26.4542 38 21.8181 38 16.1197V14.0528H27.5Z" fill="white"/>
</svg>
