<svg width="54" height="36" viewBox="0 0 54 36" fill="none" xmlns="http://www.w3.org/2000/svg">
<rect width="54" height="36" rx="4" fill="#6A453B"/>
<path d="M30.8999 7H22.1002C18.7365 7 16 9.73652 16 13.1002V21.8998C16 25.2635 18.7365 28 22.1002 28H30.8998C34.2635 28 37 25.2635 37 21.8999V13.1002C37 9.73652 34.2635 7 30.8999 7ZM35.3594 21.8998C35.3594 24.3588 33.3588 26.3594 30.8999 26.3594H22.1002C19.6412 26.3594 17.6406 24.3588 17.6406 21.8999V13.1002C17.6406 10.6412 19.6412 8.64062 22.1002 8.64062H30.8998C33.3588 8.64062 35.3594 10.6412 35.3594 13.1002V21.8998Z" fill="white" stroke="white" stroke-width="0.5"/>
<path d="M26.5 11.8398C23.379 11.8398 20.8398 14.379 20.8398 17.5C20.8398 20.621 23.379 23.1602 26.5 23.1602C29.621 23.1602 32.1602 20.621 32.1602 17.5C32.1602 14.379 29.621 11.8398 26.5 11.8398ZM26.5 21.5195C24.2836 21.5195 22.4805 19.7164 22.4805 17.5C22.4805 15.2836 24.2836 13.4805 26.5 13.4805C28.7164 13.4805 30.5195 15.2836 30.5195 17.5C30.5195 19.7164 28.7164 21.5195 26.5 21.5195Z" fill="white" stroke="white" stroke-width="0.5"/>
<path d="M32.2422 12.5781C32.6952 12.5781 33.0625 12.2109 33.0625 11.7578C33.0625 11.3048 32.6952 10.9375 32.2422 10.9375C31.7891 10.9375 31.4219 11.3048 31.4219 11.7578C31.4219 12.2109 31.7891 12.5781 32.2422 12.5781Z" fill="white" stroke="white" stroke-width="0.5"/>
</svg>
