<svg width="27" height="26" viewBox="0 0 27 26" fill="none" xmlns="http://www.w3.org/2000/svg">
<g opacity="0.75">
<path d="M8.18931 0.5H19.0842C22.9725 0.5 26.1367 3.66421 26.1367 7.55259V18.4475C26.1367 22.3358 22.9725 25.5 19.0841 25.5H8.18931C4.30094 25.5 1.13672 22.3358 1.13672 18.4474V7.55259C1.13672 3.66422 4.30094 0.5 8.18931 0.5ZM19.0842 24.4688C22.4048 24.4688 25.1055 21.768 25.1055 18.4474V7.55259C25.1055 4.23196 22.4048 1.53125 19.0841 1.53125H8.18931C4.86868 1.53125 2.16797 4.23196 2.16797 7.55259V18.4475C2.16797 21.768 4.86868 24.4688 8.18931 24.4688H19.0842Z" fill="#222222" stroke="#222222"/>
<path d="M7.12891 13C7.12891 9.41199 10.0487 6.49219 13.6367 6.49219C17.2247 6.49219 20.1445 9.41199 20.1445 13C20.1445 16.588 17.2247 19.5078 13.6367 19.5078C10.0487 19.5078 7.12891 16.588 7.12891 13ZM8.16016 13C8.16016 16.0202 10.6165 18.4766 13.6367 18.4766C16.6569 18.4766 19.1133 16.0202 19.1133 13C19.1133 9.97979 16.6569 7.52344 13.6367 7.52344C10.6165 7.52344 8.16016 9.97979 8.16016 13Z" fill="#222222" stroke="#222222"/>
<path d="M21.2617 5.89063C21.2617 6.1754 21.0309 6.40625 20.7461 6.40625C20.4613 6.40625 20.2305 6.1754 20.2305 5.89063C20.2305 5.60585 20.4613 5.375 20.7461 5.375C21.0309 5.375 21.2617 5.60585 21.2617 5.89063Z" fill="#222222" stroke="#222222"/>
</g>
</svg>
