<svg width="34" height="22" viewBox="0 0 34 22" fill="none" xmlns="http://www.w3.org/2000/svg">
<path opacity="0.75" fill-rule="evenodd" clip-rule="evenodd" d="M16.4272 20.1893H18.2639C18.2639 20.1893 18.8187 20.1236 19.1019 19.7942C19.3626 19.4918 19.3543 18.924 19.3543 18.924C19.3543 18.924 19.3184 16.2655 20.4622 15.874C21.5898 15.4884 23.0377 18.4434 24.5724 19.5796C25.7328 20.4395 26.6147 20.2509 26.6147 20.2509L30.7181 20.1893C30.7181 20.1893 32.8648 20.0467 31.8469 18.2261C31.7635 18.0771 31.2542 16.8793 28.7959 14.4179C26.223 11.8418 26.5676 12.2585 29.6669 7.80237C31.5545 5.08857 32.3091 3.43176 32.0734 2.72215C31.8486 2.04628 30.4603 2.22492 30.4603 2.22492L25.8401 2.25597C25.8401 2.25597 25.4976 2.20558 25.2435 2.36937C24.9953 2.53001 24.8356 2.90439 24.8356 2.90439C24.8356 2.90439 24.1043 5.00442 23.129 6.79038C21.0717 10.5589 20.2491 10.7578 19.9129 10.5238C19.1307 9.97845 19.3259 8.33289 19.3259 7.16386C19.3259 3.51186 19.8394 1.98914 18.326 1.59496C17.8238 1.46402 17.4542 1.37762 16.1698 1.36367C14.5213 1.34522 13.1259 1.36907 12.3359 1.78665C11.8103 2.06428 11.4048 2.683 11.6517 2.71855C11.9571 2.76265 12.6487 2.91969 13.0154 3.45831C13.4888 4.15307 13.4722 5.71359 13.4722 5.71359C13.4722 5.71359 13.7441 10.0127 12.8368 10.5468C12.214 10.9131 11.3597 10.1652 9.52555 6.74628C8.58573 4.99497 7.87617 3.05918 7.87617 3.05918C7.87617 3.05918 7.73934 2.6974 7.49531 2.50391C7.19914 2.26947 6.78534 2.19478 6.78534 2.19478L2.3949 2.22582C2.3949 2.22582 1.73581 2.24562 1.49386 2.55476C1.27862 2.82969 1.47676 3.39846 1.47676 3.39846C1.47676 3.39846 4.91403 12.0731 8.80598 16.4446C12.3746 20.4525 16.4272 20.1893 16.4272 20.1893Z" stroke="#222222" stroke-width="1.8"/>
</svg>
