<svg width="16" height="27" viewBox="0 0 16 27" fill="none" xmlns="http://www.w3.org/2000/svg">
<g opacity="0.75">
<path d="M9.45715 26.2121H5.4558C4.78745 26.2121 4.24377 25.6635 4.24377 24.9891V15.8824H1.9093C1.24095 15.8824 0.697266 15.3336 0.697266 14.6594V10.7571C0.697266 10.0827 1.24095 9.53413 1.9093 9.53413H4.24377V7.58002C4.24377 5.64244 4.84674 3.99398 5.98728 2.81312C7.13298 1.62688 8.73409 1 10.6175 1L13.6691 1.005C14.3364 1.00616 14.8791 1.55475 14.8791 2.22798V5.85115C14.8791 6.52554 14.3356 7.07413 13.6674 7.07413L11.6128 7.0749C10.9862 7.0749 10.8266 7.20166 10.7925 7.24052C10.7363 7.30495 10.6694 7.48711 10.6694 7.99012V9.53394H13.513C13.7271 9.53394 13.9345 9.58722 14.1127 9.68763C14.4972 9.90442 14.7363 10.3143 14.7363 10.7573L14.7348 14.6596C14.7348 15.3336 14.1911 15.8822 13.5227 15.8822H10.6694V24.9891C10.6694 25.6635 10.1255 26.2121 9.45715 26.2121ZM5.70858 24.7341H9.20437V15.2207C9.20437 14.7704 9.56753 14.4041 10.0136 14.4041H13.27L13.2713 11.0122H10.0134C9.56734 11.0122 9.20437 10.6459 9.20437 10.1956V7.99012C9.20437 7.41267 9.26252 6.75598 9.69449 6.2624C10.2164 5.66572 11.039 5.59686 11.6124 5.59686L13.4143 5.59609V2.48266L10.6164 2.47804C7.58954 2.47804 5.70858 4.43312 5.70858 7.58002V10.1956C5.70858 10.6457 5.34562 11.0122 4.89954 11.0122H2.16208V14.4041H4.89954C5.34562 14.4041 5.70858 14.7704 5.70858 15.2207V24.7341ZM13.6663 2.48304H13.6665H13.6663Z" fill="#222222" stroke="#222222" stroke-width="0.5"/>
</g>
</svg>
