<svg width="30" height="24" viewBox="0 0 30 24" fill="none" xmlns="http://www.w3.org/2000/svg">
<g opacity="0.75">
<mask id="path-1-inside-1" fill="white">
<path d="M12.3956 6.83146C11.7756 6.45191 10.981 6.9107 10.981 7.65448V16.6003C10.981 17.3479 11.7768 17.8003 12.3956 17.4246L19.717 12.958C20.3258 12.5862 20.3245 11.6839 19.7183 11.3107L12.3956 6.83146ZM12.8522 14.9146V9.34267L17.4117 12.1325L12.8522 14.9146Z"/>
</mask>
<path d="M12.3956 6.83146C11.7756 6.45191 10.981 6.9107 10.981 7.65448V16.6003C10.981 17.3479 11.7768 17.8003 12.3956 17.4246L19.717 12.958C20.3258 12.5862 20.3245 11.6839 19.7183 11.3107L12.3956 6.83146ZM12.8522 14.9146V9.34267L17.4117 12.1325L12.8522 14.9146Z" fill="#222222"/>
<path d="M12.3956 6.83146L1.25699 25.026L1.26352 25.03L12.3956 6.83146ZM12.3956 17.4246L23.4683 35.6593L23.4871 35.6479L23.5059 35.6364L12.3956 17.4246ZM19.717 12.958L30.8273 31.1699L30.8383 31.1632L19.717 12.958ZM19.7183 11.3107L30.9007 -6.85695L30.8755 -6.87242L30.8503 -6.88783L19.7183 11.3107ZM12.8522 14.9146H-8.48116V52.923L23.9641 33.1255L12.8522 14.9146ZM12.8522 9.34267L23.9864 -8.85457L-8.48116 -28.7203V9.34267H12.8522ZM17.4117 12.1325L28.5236 30.3433L58.3275 12.1575L28.5459 -6.06477L17.4117 12.1325ZM23.5342 -11.3631C7.95795 -20.8988 -10.3524 -8.88032 -10.3524 7.65448H32.3143C32.3143 22.7017 15.5933 33.8026 1.25699 25.026L23.5342 -11.3631ZM-10.3524 7.65448V16.6003H32.3143V7.65448H-10.3524ZM-10.3524 16.6003C-10.3524 33.3283 8.07849 45.0045 23.4683 35.6593L1.32288 -0.810199C15.4752 -9.40394 32.3143 1.36741 32.3143 16.6003H-10.3524ZM23.5059 35.6364L30.8273 31.1699L8.6067 -5.25382L1.28528 -0.787315L23.5059 35.6364ZM30.8383 31.1632C45.1143 22.4422 44.9904 1.81541 30.9007 -6.85695L8.53587 29.4784C-4.3413 21.5524 -4.4627 2.73012 8.5957 -5.2471L30.8383 31.1632ZM30.8503 -6.88783L23.5277 -11.3671L1.26352 25.03L8.58619 29.5093L30.8503 -6.88783ZM34.1855 14.9146V9.34267H-8.48116V14.9146H34.1855ZM1.71793 27.5399L6.27744 30.3297L28.5459 -6.06477L23.9864 -8.85457L1.71793 27.5399ZM6.29973 -6.07839L1.74021 -3.29625L23.9641 33.1255L28.5236 30.3433L6.29973 -6.07839Z" fill="#222222" mask="url(#path-1-inside-1)"/>
<mask id="path-3-inside-2" fill="white">
<path d="M24.8297 0.970901C19.0252 0.0878245 10.9167 0.0878245 5.10966 0.970901C2.78686 1.32362 0.956813 3.19201 0.557621 5.6176C-0.185874 10.1199 -0.185874 14.134 0.557621 18.635C0.956813 21.0619 2.78686 22.929 5.10966 23.2817C8.01877 23.7239 11.5017 23.945 14.9834 23.945C18.4589 23.945 21.9331 23.7251 24.831 23.283C27.1513 22.9303 28.9801 21.0631 29.3818 18.6363C30.1253 14.134 30.1253 10.1186 29.3818 5.61632C28.9826 3.19201 27.1525 1.32362 24.8297 0.970901ZM27.5368 18.3168C27.271 19.9219 26.0735 21.1564 24.5553 21.3865C18.9192 22.244 11.0352 22.244 5.3841 21.3852C3.86468 21.1539 2.66585 19.9206 2.40139 18.3155C1.68534 13.9781 1.68534 10.2758 2.40139 5.93581C2.6671 4.33068 3.86468 3.09872 5.38535 2.86613C8.20714 2.43801 11.589 2.22331 14.9684 2.22331C18.3504 2.22331 21.7323 2.43801 24.554 2.86613C26.0735 3.09744 27.2723 4.33068 27.5368 5.93581C28.2528 10.2758 28.2528 13.9781 27.5368 18.3168Z"/>
</mask>
<path d="M24.8297 0.970901C19.0252 0.0878245 10.9167 0.0878245 5.10966 0.970901C2.78686 1.32362 0.956813 3.19201 0.557621 5.6176C-0.185874 10.1199 -0.185874 14.134 0.557621 18.635C0.956813 21.0619 2.78686 22.929 5.10966 23.2817C8.01877 23.7239 11.5017 23.945 14.9834 23.945C18.4589 23.945 21.9331 23.7251 24.831 23.283C27.1513 22.9303 28.9801 21.0631 29.3818 18.6363C30.1253 14.134 30.1253 10.1186 29.3818 5.61632C28.9826 3.19201 27.1525 1.32362 24.8297 0.970901ZM27.5368 18.3168C27.271 19.9219 26.0735 21.1564 24.5553 21.3865C18.9192 22.244 11.0352 22.244 5.3841 21.3852C3.86468 21.1539 2.66585 19.9206 2.40139 18.3155C1.68534 13.9781 1.68534 10.2758 2.40139 5.93581C2.6671 4.33068 3.86468 3.09872 5.38535 2.86613C8.20714 2.43801 11.589 2.22331 14.9684 2.22331C18.3504 2.22331 21.7323 2.43801 24.554 2.86613C26.0735 3.09744 27.2723 4.33068 27.5368 5.93581C28.2528 10.2758 28.2528 13.9781 27.5368 18.3168Z" fill="#222222"/>
<path d="M5.10966 0.970901L8.31243 22.0624L8.31697 22.0618L5.10966 0.970901ZM0.557621 5.6176L21.6059 9.09345L21.6078 9.08194L0.557621 5.6176ZM0.557621 18.635L21.6081 15.1724L21.6069 15.1653L21.6057 15.1582L0.557621 18.635ZM5.10966 23.2817L8.31545 2.1906L8.31243 2.19015L5.10966 23.2817ZM24.831 23.283L21.6248 2.19193L21.6131 2.19373L24.831 23.283ZM29.3818 18.6363L50.4288 22.1199L50.43 22.1121L29.3818 18.6363ZM29.3818 5.61632L8.3319 9.08244L8.3335 9.09217L29.3818 5.61632ZM27.5368 18.3168L48.5837 21.8009L48.5854 21.7906L27.5368 18.3168ZM24.5553 21.3865L21.3593 0.293878L21.3464 0.295845L24.5553 21.3865ZM5.3841 21.3852L2.17337 42.4755L2.17886 42.4764L5.3841 21.3852ZM2.40139 18.3155L23.4509 14.8473L23.4498 14.8407L2.40139 18.3155ZM2.40139 5.93581L-18.6455 2.45172L-18.6474 2.46299L2.40139 5.93581ZM5.38535 2.86613L2.18529 -18.2258L2.17258 -18.2239L2.15987 -18.222L5.38535 2.86613ZM24.554 2.86613L27.7648 -18.2242L27.7541 -18.2258L24.554 2.86613ZM27.5368 5.93581L6.48722 9.40398L6.48799 9.40863L27.5368 5.93581ZM28.0384 -20.1198C20.1066 -21.3265 9.83487 -21.3263 1.90234 -20.12L8.31697 22.0618C11.9984 21.5019 17.9439 21.5021 21.6211 22.0616L28.0384 -20.1198ZM1.90688 -20.1206C-10.1238 -18.2938 -18.6875 -8.81484 -20.4925 2.15326L21.6078 9.08194C20.6011 15.1989 15.6975 20.941 8.31243 22.0624L1.90688 -20.1206ZM-20.4906 2.14175C-21.6142 8.94535 -21.6143 15.3082 -20.4905 22.1118L21.6057 15.1582C21.2426 12.9598 21.2424 11.2944 21.6059 9.09345L-20.4906 2.14175ZM-20.4928 22.0976C-18.6876 33.0727 -10.1197 42.547 1.90688 44.3732L8.31243 2.19015C15.6934 3.31095 20.6012 9.05105 21.6081 15.1724L-20.4928 22.0976ZM1.90387 44.3728C6.12028 45.0137 10.7104 45.2783 14.9834 45.2783V2.61162C12.293 2.61162 9.91726 2.43407 8.31545 2.1906L1.90387 44.3728ZM14.9834 45.2783C19.2445 45.2783 23.8322 45.0156 28.0489 44.3722L21.6131 2.19373C20.034 2.43467 17.6732 2.61162 14.9834 2.61162V45.2783ZM28.0371 44.374C40.0726 42.5444 48.6175 33.063 50.4288 22.1199L8.33479 15.1526C9.34268 9.0633 14.23 3.31606 21.6248 2.19193L28.0371 44.374ZM50.43 22.1121C51.5536 15.3082 51.5536 8.9444 50.43 2.14047L8.3335 9.09217C8.69691 11.2928 8.69691 12.9598 8.3335 15.1604L50.43 22.1121ZM50.4316 2.1502C48.6256 -8.81784 40.0606 -18.2942 28.0325 -20.1206L21.627 22.0624C14.2445 20.9414 9.33954 15.2019 8.3319 9.08244L50.4316 2.1502ZM6.48985 14.8327C7.6074 8.08175 13.0025 1.56011 21.3593 0.293882L27.7512 42.479C39.1445 40.7527 46.9347 31.7621 48.5837 21.8009L6.48985 14.8327ZM21.3464 0.295845C17.8399 0.82935 12.1184 0.83032 8.58934 0.294013L2.17886 42.4764C9.95197 43.6576 19.9985 43.6586 27.7642 42.4771L21.3464 0.295845ZM8.59483 0.294848C16.9102 1.56075 22.3315 8.05299 23.4509 14.8473L-18.6481 21.7837C-16.9998 31.7883 -9.18082 40.747 2.17337 42.4755L8.59483 0.294848ZM23.4498 14.8407C23.1137 12.8049 23.1134 11.4496 23.4502 9.40863L-18.6474 2.46299C-19.7427 9.10197 -19.7431 15.1512 -18.6471 21.7903L23.4498 14.8407ZM23.4483 9.4199C22.3248 16.2065 16.9081 22.6851 8.61082 23.9542L2.15987 -18.222C-9.17877 -16.4877 -16.9906 -7.54518 -18.6455 2.45172L23.4483 9.4199ZM8.58541 23.9581C10.1034 23.7278 12.3805 23.5566 14.9684 23.5566V-19.11C10.7975 -19.11 6.31084 -18.8518 2.18529 -18.2258L8.58541 23.9581ZM14.9684 23.5566C17.5593 23.5566 19.8363 23.7278 21.354 23.9581L27.7541 -18.2258C23.6282 -18.8518 19.1414 -19.11 14.9684 -19.11V23.5566ZM21.3433 23.9565C13.028 22.6906 7.60667 16.1983 6.48722 9.40398L48.5863 2.46765C46.9379 -7.53695 39.119 -16.4957 27.7648 -18.2242L21.3433 23.9565ZM6.48799 9.40863C6.82468 11.4493 6.82451 12.8049 6.48815 14.843L48.5854 21.7906C49.6811 15.1512 49.6809 9.10231 48.5855 2.46299L6.48799 9.40863Z" fill="#222222" mask="url(#path-3-inside-2)"/>
</g>
</svg>
