<svg width="54" height="36" viewBox="0 0 54 36" fill="none" xmlns="http://www.w3.org/2000/svg">
<rect width="54" height="36" rx="4" fill="#FF9800"/>
<g clip-path="url(#clip0)">
<path d="M27.0006 18.9055C30.2882 18.9055 32.9534 16.2404 32.9534 12.9527C32.9534 9.66509 30.2882 7 27.0006 7C23.7129 7 21.0479 9.66514 21.0479 12.9528C21.0519 16.2387 23.7147 18.9015 27.0006 18.9055ZM27.0006 9.74743C28.7708 9.74743 30.2059 11.1825 30.2059 12.9528C30.2059 14.7231 28.7709 16.1581 27.0006 16.1581C25.2303 16.1581 23.7952 14.7231 23.7952 12.9528C23.7952 11.1825 25.2303 9.74743 27.0006 9.74743Z" fill="white"/>
<path d="M32.8315 21.7278C33.4784 21.3016 33.8682 20.5792 33.8691 19.8046C33.8781 19.1617 33.5153 18.5713 32.9377 18.2889C32.3443 17.9925 31.6339 18.0592 31.1061 18.4611C28.6599 20.2444 25.3421 20.2444 22.8959 18.4611C22.3673 18.0613 21.6581 17.9946 21.0642 18.2889C20.4869 18.5713 20.1239 19.161 20.132 19.8036C20.1333 20.5781 20.523 21.3004 21.1696 21.7268C21.9991 22.2785 22.9025 22.7101 23.8529 23.009C24.0141 23.059 24.1805 23.1054 24.3521 23.1482L21.5845 25.8544C20.8585 26.5588 20.8409 27.7184 21.5453 28.4444C22.2498 29.1704 23.4093 29.188 24.1354 28.4836C24.1505 28.4689 24.1653 28.454 24.1799 28.4388L27.0006 25.5192L29.8268 28.4443C30.5306 29.1708 31.6902 29.1893 32.4168 28.4855C33.1434 27.7817 33.1618 26.6221 32.458 25.8955C32.4433 25.8803 32.4283 25.8654 32.4131 25.8507L29.6501 23.1472C29.8216 23.1033 29.9886 23.0566 30.151 23.0071C31.1003 22.7094 32.0029 22.2787 32.8315 21.7278Z" fill="white"/>
</g>
<defs>
<clipPath id="clip0">
<rect x="16" y="7" width="22" height="22" fill="white"/>
</clipPath>
</defs>
</svg>
