<svg width="54" height="36" viewBox="0 0 54 36" fill="none" xmlns="http://www.w3.org/2000/svg">
<rect width="54" height="36" rx="4" fill="#55ACEE"/>
<path d="M26.9992 34.0212C35.8353 34.0212 42.9983 26.853 42.9983 18.0106C42.9983 9.16819 35.8353 2 26.9992 2C18.1631 2 11 9.16819 11 18.0106C11 26.853 18.1631 34.0212 26.9992 34.0212Z" fill="#55ACEE"/>
<path d="M36.8002 13.5056C36.1146 13.8098 35.3771 14.0156 34.6036 14.1075C35.3933 13.634 35.9994 12.8848 36.2854 11.9906C35.5465 12.4293 34.7277 12.7475 33.857 12.9191C33.1594 12.1756 32.1654 11.7109 31.0649 11.7109C28.9532 11.7109 27.2406 13.4248 27.2406 15.5379C27.2406 15.8379 27.2746 16.1298 27.3402 16.4101C24.1619 16.2506 21.3438 14.7271 19.4575 12.411C19.1284 12.9761 18.9396 13.634 18.9396 14.3352C18.9396 15.6626 19.6152 16.8345 20.6408 17.5206C20.0142 17.5009 19.4242 17.3288 18.9088 17.0414C18.9085 17.0577 18.9085 17.074 18.9085 17.0899C18.9085 18.9442 20.2273 20.4908 21.9764 20.8421C21.6558 20.9301 21.3173 20.9766 20.9691 20.9766C20.7221 20.9766 20.4828 20.9529 20.2495 20.9084C20.7361 22.4284 22.1481 23.5349 23.8219 23.566C22.5129 24.5926 20.8641 25.2043 19.0719 25.2043C18.7639 25.2043 18.4588 25.1863 18.1602 25.1506C19.8517 26.2369 21.8623 26.8702 24.0219 26.8702C31.056 26.8702 34.9028 21.0388 34.9028 15.9812C34.9028 15.8153 34.8991 15.6501 34.8917 15.4863C35.6395 14.9468 36.2877 14.273 36.8002 13.5056Z" fill="#F1F2F2"/>
</svg>
