<svg width="54" height="36" viewBox="0 0 54 36" fill="none" xmlns="http://www.w3.org/2000/svg">
<rect width="54" height="36" rx="4" fill="#4D76A1"/>
<path d="M26.9878 35C36.37 35 43.9757 27.3888 43.9757 18C43.9757 8.61116 36.37 1 26.9878 1C17.6057 1 10 8.61116 10 18C10 27.3888 17.6057 35 26.9878 35Z" fill="#4D76A1"/>
<path fill-rule="evenodd" clip-rule="evenodd" d="M26.3462 25.4547H27.6796C27.6796 25.4547 28.0823 25.4104 28.2879 25.1886C28.4772 24.985 28.4712 24.6025 28.4712 24.6025C28.4712 24.6025 28.4451 22.8122 29.2755 22.5485C30.094 22.2888 31.1451 24.2789 32.2592 25.0441C33.1016 25.6232 33.7418 25.4962 33.7418 25.4962L36.7207 25.4547C36.7207 25.4547 38.279 25.3586 37.5401 24.1325C37.4796 24.0322 37.1098 23.2255 35.3253 21.5679C33.4575 19.833 33.7076 20.1136 35.9576 17.1126C37.3279 15.2849 37.8757 14.1691 37.7046 13.6912C37.5413 13.236 36.5335 13.3564 36.5335 13.3564L33.1795 13.3773C33.1795 13.3773 32.9308 13.3433 32.7464 13.4536C32.5662 13.5618 32.4503 13.8139 32.4503 13.8139C32.4503 13.8139 31.9194 15.2282 31.2114 16.431C29.7179 18.969 29.1207 19.1029 28.8766 18.9453C28.3088 18.5781 28.4506 17.4698 28.4506 16.6825C28.4506 14.2231 28.8233 13.1976 27.7247 12.9321C27.3601 12.8439 27.0918 12.7857 26.1594 12.7763C24.9626 12.7639 23.9497 12.78 23.3761 13.0612C22.9946 13.2482 22.7002 13.6648 22.8795 13.6888C23.1012 13.7185 23.6033 13.8242 23.8694 14.187C24.2131 14.6549 24.201 15.7058 24.201 15.7058C24.201 15.7058 24.3985 18.6011 23.7398 18.9608C23.2877 19.2075 22.6675 18.7038 21.336 16.4013C20.6537 15.2219 20.1386 13.9182 20.1386 13.9182C20.1386 13.9182 20.0393 13.6745 19.8622 13.5442C19.6472 13.3864 19.3468 13.336 19.3468 13.336L16.1595 13.357C16.1595 13.357 15.6811 13.3703 15.5054 13.5785C15.3492 13.7636 15.493 14.1467 15.493 14.1467C15.493 14.1467 17.9883 19.9887 20.8136 22.9328C23.4043 25.632 26.3462 25.4547 26.3462 25.4547Z" fill="white"/>
</svg>
