<svg width="32" height="32" viewBox="0 0 32 32" fill="none" xmlns="http://www.w3.org/2000/svg">
<rect x="31.5" y="31.5" width="31" height="31" rx="15.5" transform="rotate(-180 31.5 31.5)" stroke="#1FB14D"/>
<path d="M16.7071 11.2929C16.3166 10.9024 15.6834 10.9024 15.2929 11.2929L8.92893 17.6569C8.53841 18.0474 8.53841 18.6805 8.92893 19.0711C9.31946 19.4616 9.95262 19.4616 10.3431 19.0711L16 13.4142L21.6569 19.0711C22.0474 19.4616 22.6805 19.4616 23.0711 19.0711C23.4616 18.6805 23.4616 18.0474 23.0711 17.6569L16.7071 11.2929ZM17 13L17 12L15 12L15 13L17 13Z" fill="#1FB14D"/>
</svg>
