<svg width="27" height="34" viewBox="0 0 27 34" fill="none" xmlns="http://www.w3.org/2000/svg">
<path d="M21.7325 17.7509C21.7696 22.0669 24.6041 24.1509 25.9372 24.8926C25.8587 25.1171 25.7535 25.3994 25.6184 25.725C25.269 26.5676 24.7317 27.6712 23.9684 28.7783L23.9628 28.7863L23.9575 28.7945C23.2825 29.8276 22.6421 30.7664 21.92 31.4565C21.2133 32.1318 20.4848 32.5144 19.6307 32.5278L19.6242 32.528C18.7391 32.5492 18.1609 32.2974 17.4044 31.9681L17.3885 31.9612C16.6034 31.6194 15.6778 31.2253 14.2685 31.2253C12.859 31.2253 11.9235 31.5898 11.1204 31.933C11.0693 31.9549 11.019 31.9765 10.9695 31.9978C10.2544 32.3049 9.6934 32.5458 8.87979 32.5802C8.12756 32.6076 7.38947 32.2258 6.61311 31.4803C5.83714 30.7352 5.12808 29.729 4.42991 28.7066C3.10465 26.7247 1.91321 23.907 1.40718 20.9716C0.899801 18.0283 1.09665 15.0636 2.42331 12.7127L2.42332 12.7127L2.4252 12.7093C3.70457 10.4159 6.01955 8.97 8.44998 8.93086L8.45362 8.93078C9.33981 8.9124 10.2312 9.22 11.1503 9.59194C11.262 9.63712 11.3759 9.68402 11.4908 9.73129C11.8246 9.86868 12.1661 10.0093 12.482 10.1203C12.9062 10.2695 13.376 10.4006 13.8386 10.4006C14.3112 10.4006 14.8194 10.24 15.2707 10.0733C15.5175 9.98205 15.8123 9.86255 16.1092 9.7422C16.3367 9.65002 16.5653 9.55733 16.7746 9.47647C17.8414 9.0643 18.9287 8.74248 19.9862 8.85645L20.0166 8.85972L20.0472 8.86063C20.915 8.88624 23.2284 9.18876 24.9353 11.2098C23.8016 12.1133 21.7019 14.2565 21.7325 17.7509ZM21.7325 17.7509L22.5171 17.7441M21.7325 17.7509C21.7325 17.7509 21.7325 17.751 21.7325 17.751L22.5171 17.7441M22.5171 17.7441C22.5605 22.797 26.8353 24.4662 26.8876 24.4857L22.5171 17.7441ZM15.8976 3.04565L15.8983 3.0448C16.7504 2.02174 18.1235 1.20319 19.3431 0.903555C19.2824 2.34678 18.6753 3.75427 17.817 4.85531C16.9214 5.93471 15.614 6.74038 14.3342 6.89444C14.3909 5.47829 15.0905 4.0119 15.8976 3.04565Z" stroke="white" stroke-width="1.56923"/>
</svg>
