<svg width="18" height="30" viewBox="0 0 18 30" fill="none" xmlns="http://www.w3.org/2000/svg">
<path d="M10.7706 29.1212H6.3076C5.56213 29.1212 4.95571 28.5093 4.95571 27.7571V17.5996H2.35188C1.60641 17.5996 1 16.9875 1 16.2355V11.8829C1 11.1307 1.60641 10.5188 2.35188 10.5188H4.95571V8.33925C4.95571 6.17811 5.62825 4.33944 6.9004 3.02233C8.17829 1.69921 9.96415 1 12.0649 1L15.4686 1.00558C16.2128 1.00687 16.8182 1.61876 16.8182 2.36967V6.4109C16.8182 7.1631 16.212 7.77499 15.4667 7.77499L13.175 7.77585C12.4761 7.77585 12.2982 7.91724 12.2601 7.96058C12.1974 8.03245 12.1227 8.23563 12.1227 8.79667V10.5186H15.2945C15.5333 10.5186 15.7646 10.5781 15.9634 10.6901C16.3923 10.9318 16.6589 11.389 16.6589 11.8832L16.6572 16.2357C16.6572 16.9875 16.0508 17.5993 15.3053 17.5993H12.1227V27.7571C12.1227 28.5093 11.5161 29.1212 10.7706 29.1212ZM6.58954 27.4726H10.4887V16.8615C10.4887 16.3593 10.8938 15.9508 11.3913 15.9508H15.0234L15.0249 12.1674H11.3911C10.8935 12.1674 10.4887 11.7589 10.4887 11.2567V8.79667C10.4887 8.1526 10.5535 7.42013 11.0354 6.8696C11.6175 6.20407 12.535 6.12726 13.1746 6.12726L15.1844 6.12641V2.65373L12.0636 2.64859C8.68753 2.64859 6.58954 4.82925 6.58954 8.33925V11.2567C6.58954 11.7587 6.1847 12.1674 5.68715 12.1674H2.63383V15.9508H5.68715C6.1847 15.9508 6.58954 16.3593 6.58954 16.8615V27.4726ZM15.4654 2.65416H15.4657H15.4654Z" fill="#222222" stroke="black" stroke-width="0.5"/>
</svg>
