<svg width="55" height="50" viewBox="0 0 55 50" fill="none" xmlns="http://www.w3.org/2000/svg">
<path id="ico_logo_bw" fill-rule="evenodd" clip-rule="evenodd" d="M42.0563 45.8425C41.8704 45.9397 41.6818 46.0353 41.4892 46.1299C41.4892 46.1299 38.2681 47.8347 34.1597 48.9841C28.0566 50.5498 21.8485 50.3724 16.0217 47.985C8.8012 45.23 3.39048 40.2966 0.984379 31.4058C-3.57375 14.5641 8.24456 0 25.1467 0C36.5492 0 48.3965 7.84074 49.0506 20.9218C49.6579 33.0681 40.6155 39.9503 30.9394 41.0822C24.5633 41.8279 17.7516 40.4731 13.8122 35.0757C4.84632 22.7906 17.138 7.51838 30.545 11.8199C36.6639 13.7834 40.1611 21.5458 35.3698 27.3041C32.5598 30.681 29.084 31.0203 25.2922 30.2794C23.419 29.7104 22.3681 27.6057 22.9449 25.5784C23.5218 23.5512 25.5081 22.3691 27.3812 22.9384C32.5938 24.1115 31.6947 17.1307 23.9514 18.4355C13.0506 20.2725 15.28 36.695 30.3098 35.6149C47.0452 34.4124 48.4075 11.8035 32.1111 6.3167C26.896 4.64656 20.6431 5.40865 15.8753 8.08346C9.28345 11.7815 5.05479 18.9765 6.05829 27.0172C8.68077 48.0282 39.28 50.7275 49.7457 32.4471C49.6381 35.2833 49.1608 37.6668 49.384 39.8505C49.7058 42.9997 51.2031 45.7108 55 48.5684C55 48.5684 48.662 49.7422 42.4039 45.6443C42.2767 45.7193 42.1602 45.7855 42.0563 45.8425Z" fill="#FFFFFE"/>
</svg>
