<svg width="21" height="24" viewBox="0 0 21 24" fill="none" xmlns="http://www.w3.org/2000/svg">
<path d="M1.17257 0.767778C1.1667 0.769666 1.16279 0.780998 1.15693 0.782887C1.14325 0.784775 1.1237 0.77911 1.11002 0.782887C1.00447 0.794219 0.906735 0.835768 0.82855 0.903759C0.492351 1.08129 0.28125 1.4458 0.28125 1.84052V22.0413C0.28125 22.3416 0.418075 22.657 0.672178 22.8421C0.789457 22.9686 0.967329 23.0253 1.14129 22.9932C1.36999 23.0045 1.61041 22.9554 1.81369 22.8421C2.23785 22.6041 10.8989 17.7654 10.8989 17.7654L15.418 15.2422C15.4278 15.2385 15.4395 15.2328 15.4493 15.2271L15.5118 15.1969C15.5118 15.1969 15.5724 15.1667 15.5744 15.1667C15.5802 15.161 15.5841 15.1572 15.59 15.1516C15.7249 15.076 19.427 13.0174 19.9371 12.7341C20.289 12.5377 20.5685 12.2185 20.5626 11.8276C20.5567 11.4366 20.2714 11.1326 19.9528 10.9664C19.7768 10.8757 18.6353 10.2449 17.5759 9.65189C16.5165 9.05886 15.5118 8.48849 15.5118 8.48849L10.8989 5.91996C10.8989 5.91996 2.5115 1.23994 2.01697 0.964195C1.84301 0.867875 1.64559 0.790441 1.45404 0.767778C1.35826 0.756446 1.26639 0.752669 1.17257 0.767778ZM1.28203 2.06715L11.4774 11.8427L1.28203 21.6182V2.06715ZM3.65887 2.98881C6.20381 4.40905 10.3985 6.75095 10.3985 6.75095L14.4329 9.0022L12.1811 11.1628L3.65887 2.98881ZM15.3242 9.5008C15.5646 9.63678 16.1764 9.98051 17.0755 10.4829C18.1349 11.0759 19.2217 11.6765 19.4837 11.8125C19.5091 11.8257 19.5012 11.8333 19.5149 11.8427C19.4954 11.8559 19.4895 11.8597 19.4367 11.888C18.9559 12.1562 15.8382 13.9051 15.3398 14.1846L12.8848 11.8427L15.3242 9.5008ZM12.1811 12.5075L14.4485 14.6832L10.3985 16.9344C10.3985 16.9344 6.31327 19.2121 3.67451 20.6815L12.1811 12.5075Z" fill="white"/>
</svg>
