<svg width="31" height="30" viewBox="0 0 31 30" fill="none" xmlns="http://www.w3.org/2000/svg">
<rect x="0.634766" y="0.5" width="29" height="29" rx="2.5" stroke="white" stroke-opacity="0.4"/>
<path d="M13.8848 14.7422H8.95508V18.7734H14.6816V20H7.45508V8.625H14.6035V9.85938H8.95508V13.5156H13.8848V14.7422ZM17.6895 11.5469L17.7363 12.6094C18.3822 11.7969 19.2259 11.3906 20.2676 11.3906C22.054 11.3906 22.9551 12.3984 22.9707 14.4141V20H21.5254V14.4062C21.5202 13.7969 21.3796 13.3464 21.1035 13.0547C20.8327 12.763 20.4082 12.6172 19.8301 12.6172C19.3613 12.6172 18.9499 12.7422 18.5957 12.9922C18.2415 13.2422 17.9655 13.5703 17.7676 13.9766V20H16.3223V11.5469H17.6895Z" fill="white"/>
</svg>
