<svg width="29" height="19" viewBox="0 0 29 19" fill="none" xmlns="http://www.w3.org/2000/svg">
<path fill-rule="evenodd" clip-rule="evenodd" d="M14.21 17.0541H15.8239C15.8239 17.0541 16.3114 16.9985 16.5603 16.7198C16.7894 16.4639 16.7821 15.9834 16.7821 15.9834C16.7821 15.9834 16.7506 13.734 17.7556 13.4027C18.7464 13.0764 20.0187 15.5768 21.3672 16.5382C22.3869 17.2658 23.1618 17.1063 23.1618 17.1063L26.7675 17.0541C26.7675 17.0541 28.6537 16.9334 27.7593 15.3929C27.686 15.2669 27.2385 14.2533 25.0784 12.1706C22.8176 9.99084 23.1204 10.3434 25.8438 6.57286C27.5024 4.27657 28.1655 2.87465 27.9584 2.27421C27.7608 1.70232 26.5409 1.85348 26.5409 1.85348L22.4811 1.87975C22.4811 1.87975 22.1802 1.83711 21.9569 1.9757C21.7388 2.11163 21.5985 2.42841 21.5985 2.42841C21.5985 2.42841 20.9559 4.20537 20.0989 5.71656C18.2911 8.90533 17.5683 9.07362 17.2729 8.87563C16.5856 8.41416 16.7572 7.02176 16.7572 6.03258C16.7572 2.94242 17.2084 1.65397 15.8785 1.32044C15.4372 1.20964 15.1125 1.13653 13.9839 1.12473C12.5353 1.10912 11.3092 1.1293 10.615 1.48263C10.1531 1.71756 9.79685 2.24108 10.0138 2.27116C10.2822 2.30848 10.8899 2.44136 11.2121 2.89711C11.6281 3.48499 11.6134 4.80543 11.6134 4.80543C11.6134 4.80543 11.8524 8.4431 11.0552 8.89505C10.5079 9.20498 9.75727 8.57217 8.14557 5.67924C7.31975 4.19737 6.69626 2.55939 6.69626 2.55939C6.69626 2.55939 6.57603 2.25327 6.36161 2.08955C6.10136 1.89118 5.73775 1.82797 5.73775 1.82797L1.87988 1.85424C1.87988 1.85424 1.30074 1.871 1.08814 2.13257C0.899005 2.36521 1.07311 2.84648 1.07311 2.84648C1.07311 2.84648 4.09343 10.1865 7.51329 13.8855C10.6491 17.2768 14.21 17.0541 14.21 17.0541Z" stroke="black" stroke-width="2"/>
</svg>
