<svg width="29" height="22" viewBox="0 0 29 22" fill="none" xmlns="http://www.w3.org/2000/svg">
<path d="M12.18 5.91393C11.6209 5.57671 10.9043 5.98433 10.9043 6.64515V14.5931C10.9043 15.2574 11.622 15.6593 12.18 15.3255L18.7827 11.3572C19.3317 11.0268 19.3305 10.2251 18.7838 9.8936L12.18 5.91393ZM12.5918 13.0955V8.14505L16.7037 10.6237L12.5918 13.0955Z" fill="#222222" stroke="black" stroke-width="0.2"/>
<path d="M23.392 0.709529C18.1574 -0.0750512 10.8449 -0.0750512 5.608 0.709529C3.51325 1.02291 1.86288 2.6829 1.50288 4.83794C0.832375 8.83805 0.832375 12.4044 1.50288 16.4034C1.86288 18.5596 3.51325 20.2184 5.608 20.5318C8.2315 20.9247 11.3725 21.1211 14.5124 21.1211C17.6466 21.1211 20.7798 20.9258 23.3931 20.5329C25.4856 20.2196 27.1349 18.5607 27.4971 16.4045C28.1676 12.4044 28.1676 8.83691 27.4971 4.83681C27.1371 2.6829 25.4867 1.02291 23.392 0.709529ZM25.8333 16.1207C25.5936 17.5468 24.5136 18.6436 23.1445 18.848C18.0618 19.6098 10.9517 19.6098 5.8555 18.8468C4.48525 18.6413 3.40412 17.5456 3.16562 16.1195C2.51987 12.2659 2.51987 8.97657 3.16562 5.12066C3.40525 3.69457 4.48525 2.60001 5.85663 2.39337C8.40137 2.013 11.4512 1.82225 14.4989 1.82225C17.5487 1.82225 20.5986 2.013 23.1434 2.39337C24.5136 2.59888 25.5947 3.69457 25.8333 5.12066C26.479 8.97657 26.479 12.2659 25.8333 16.1207Z" fill="#222222" stroke="black" stroke-width="0.2"/>
</svg>
