<svg width="27" height="24" viewBox="0 0 27 24" fill="none" xmlns="http://www.w3.org/2000/svg">
<path d="M25.2837 11.7257C24.8858 11.7257 24.5675 12.028 24.5675 12.4058V18.5914C24.5675 20.2739 23.1244 21.6389 21.3576 21.6389H5.6424C3.87033 21.6389 2.43251 20.2688 2.43251 18.5914V12.305C2.43251 11.9272 2.11418 11.625 1.71626 11.625C1.31834 11.625 1 11.9272 1 12.305V18.5914C1 21.0244 3.0851 22.999 5.6424 22.999H21.3576C23.9202 22.999 26 21.0194 26 18.5914V12.4058C26 12.033 25.6817 11.7257 25.2837 11.7257Z" fill="#FD4B6F" stroke="#FD4B6F"/>
<path d="M12.995 17.5976C13.1329 17.7286 13.3186 17.7991 13.499 17.7991C13.6794 17.7991 13.8651 17.7336 14.003 17.5976L18.5552 13.2757C18.8364 13.0087 18.8364 12.5805 18.5552 12.3136C18.274 12.0466 17.8231 12.0466 17.5419 12.3136L14.2153 15.4769V1.68002C14.2153 1.30223 13.8969 1 13.499 1C13.1011 1 12.7828 1.30223 12.7828 1.68002V15.4769L9.45083 12.3136C9.16963 12.0466 8.71866 12.0466 8.43746 12.3136C8.15626 12.5805 8.15626 13.0087 8.43746 13.2757L12.995 17.5976Z" fill="#FD4B6F" stroke="#FD4B6F"/>
</svg>
