<svg width="251" height="73" viewBox="0 0 251 73" fill="none" xmlns="http://www.w3.org/2000/svg">
<mask id="path-1-outside-1" maskUnits="userSpaceOnUse" x="0" y="0" width="251" height="73" fill="black">
<rect fill="white" width="251" height="73"/>
<path fill-rule="evenodd" clip-rule="evenodd" d="M190.543 51.3261C192.763 46.5596 193.873 40.989 193.873 34.6144C193.873 28.2399 192.763 22.698 190.543 17.9889C188.383 13.2223 185.053 9.54686 180.553 6.96257C176.053 4.32086 170.323 3 163.363 3C156.343 3 150.553 4.32086 145.993 6.96257C141.493 9.54686 138.133 13.1936 135.913 17.9027C133.753 22.6119 132.673 28.1537 132.673 34.5283C132.673 40.9029 133.753 46.4734 135.913 51.24C138.133 56.0066 141.493 59.7107 145.993 62.3524C147.267 63.0904 148.635 63.7253 150.096 64.2571H150H142.5H134.166H127.5H119.343V3.94757H78.7526C78.0326 9.86271 77.2526 15.462 76.4126 20.7454C75.6326 25.9714 74.9126 30.537 74.2526 34.4421C73.5926 38.3473 73.0826 41.2187 72.7226 43.0564C71.7626 47.8804 69.8426 52.9629 69.8426 52.9629L67.5 57.0786L65 60.4573L63 62.8214L61.1126 64.2571H41.5744C45.0334 63.4248 47.8353 62.1582 49.98 60.4573C54.24 57.069 56.37 52.3311 56.37 46.2437C56.37 42.6257 55.44 39.4097 53.58 36.5957C51.72 33.7817 48.84 31.5707 44.94 29.9627C41.1 28.3547 36.15 27.5507 30.09 27.5507H24.69V14.7154H51.69V3.94757H11.1V64.2571H3V70H69L75.1854 64.9254L76.4126 63.7786L80.5 58.5143C80.5 58.5143 84.0026 52.9916 84.7826 49.431C85.2626 47.2487 85.7426 44.7506 86.2226 41.9366C86.7026 39.0651 87.1526 36.0501 87.5726 32.8916C88.0526 29.6756 88.4726 26.517 88.8326 23.4159C89.2526 20.3147 89.6426 17.4433 90.0026 14.8016H105.753V65.4536H105.8V70H127.5H133.166H137.833H142.5H150H232V64.2571H220.774V14.7154H247.774V3.94757H207.184V64.2571H176.487C177.941 63.7253 179.296 63.0904 180.553 62.3524C185.053 59.7107 188.383 56.0353 190.543 51.3261ZM150.853 49.8617C148.273 46.1289 146.983 41.0464 146.983 34.6144C146.983 28.125 148.273 23.0426 150.853 19.3671C153.433 15.6917 157.603 13.854 163.363 13.854C169.123 13.854 173.263 15.6917 175.783 19.3671C178.303 23.0426 179.563 28.125 179.563 34.6144C179.563 41.0464 178.303 46.1289 175.783 49.8617C173.263 53.5371 169.093 55.3749 163.273 55.3749C157.573 55.3749 153.433 53.5371 150.853 49.8617ZM29.28 54.7719H24.69V38.2324H28.2C32.64 38.2324 36.15 38.7493 38.73 39.783C41.31 40.8167 42.6 42.9703 42.6 46.2437C42.6 49.4023 41.4 51.6133 39 52.8767C36.66 54.1401 33.42 54.7719 29.28 54.7719Z"/>
</mask>
<path fill-rule="evenodd" clip-rule="evenodd" d="M190.543 51.3261C192.763 46.5596 193.873 40.989 193.873 34.6144C193.873 28.2399 192.763 22.698 190.543 17.9889C188.383 13.2223 185.053 9.54686 180.553 6.96257C176.053 4.32086 170.323 3 163.363 3C156.343 3 150.553 4.32086 145.993 6.96257C141.493 9.54686 138.133 13.1936 135.913 17.9027C133.753 22.6119 132.673 28.1537 132.673 34.5283C132.673 40.9029 133.753 46.4734 135.913 51.24C138.133 56.0066 141.493 59.7107 145.993 62.3524C147.267 63.0904 148.635 63.7253 150.096 64.2571H150H142.5H134.166H127.5H119.343V3.94757H78.7526C78.0326 9.86271 77.2526 15.462 76.4126 20.7454C75.6326 25.9714 74.9126 30.537 74.2526 34.4421C73.5926 38.3473 73.0826 41.2187 72.7226 43.0564C71.7626 47.8804 69.8426 52.9629 69.8426 52.9629L67.5 57.0786L65 60.4573L63 62.8214L61.1126 64.2571H41.5744C45.0334 63.4248 47.8353 62.1582 49.98 60.4573C54.24 57.069 56.37 52.3311 56.37 46.2437C56.37 42.6257 55.44 39.4097 53.58 36.5957C51.72 33.7817 48.84 31.5707 44.94 29.9627C41.1 28.3547 36.15 27.5507 30.09 27.5507H24.69V14.7154H51.69V3.94757H11.1V64.2571H3V70H69L75.1854 64.9254L76.4126 63.7786L80.5 58.5143C80.5 58.5143 84.0026 52.9916 84.7826 49.431C85.2626 47.2487 85.7426 44.7506 86.2226 41.9366C86.7026 39.0651 87.1526 36.0501 87.5726 32.8916C88.0526 29.6756 88.4726 26.517 88.8326 23.4159C89.2526 20.3147 89.6426 17.4433 90.0026 14.8016H105.753V65.4536H105.8V70H127.5H133.166H137.833H142.5H150H232V64.2571H220.774V14.7154H247.774V3.94757H207.184V64.2571H176.487C177.941 63.7253 179.296 63.0904 180.553 62.3524C185.053 59.7107 188.383 56.0353 190.543 51.3261ZM150.853 49.8617C148.273 46.1289 146.983 41.0464 146.983 34.6144C146.983 28.125 148.273 23.0426 150.853 19.3671C153.433 15.6917 157.603 13.854 163.363 13.854C169.123 13.854 173.263 15.6917 175.783 19.3671C178.303 23.0426 179.563 28.125 179.563 34.6144C179.563 41.0464 178.303 46.1289 175.783 49.8617C173.263 53.5371 169.093 55.3749 163.273 55.3749C157.573 55.3749 153.433 53.5371 150.853 49.8617ZM29.28 54.7719H24.69V38.2324H28.2C32.64 38.2324 36.15 38.7493 38.73 39.783C41.31 40.8167 42.6 42.9703 42.6 46.2437C42.6 49.4023 41.4 51.6133 39 52.8767C36.66 54.1401 33.42 54.7719 29.28 54.7719Z" fill="white" fill-opacity="0.08"/>
<path d="M190.543 51.3261L188.005 50.144L188.001 50.1514L187.998 50.1588L190.543 51.3261ZM190.543 17.9889L187.993 19.1446L188.001 19.1638L188.01 19.1828L190.543 17.9889ZM180.553 6.96257L179.136 9.37724L179.147 9.384L179.159 9.39066L180.553 6.96257ZM145.993 6.96257L147.388 9.39068L147.397 9.38537L145.993 6.96257ZM135.913 17.9027L133.38 16.7087L133.374 16.722L133.368 16.7353L135.913 17.9027ZM135.913 51.24L133.363 52.3957L133.369 52.409L133.375 52.4222L135.913 51.24ZM145.993 62.3524L144.576 64.7671L144.583 64.7712L144.59 64.7752L145.993 62.3524ZM150.096 64.2571V67.0571L151.053 61.626L150.096 64.2571ZM119.343 64.2571H116.543V67.0571H119.343V64.2571ZM119.343 3.94757H122.143V1.14757H119.343V3.94757ZM78.7526 3.94757V1.14757H76.2727L75.9731 3.60925L78.7526 3.94757ZM76.4126 20.7454L73.6473 20.3058L73.6452 20.3189L73.6432 20.3321L76.4126 20.7454ZM74.2526 34.4421L71.4917 33.9755V33.9755L74.2526 34.4421ZM72.7226 43.0564L75.4687 43.6029L75.4704 43.5947L72.7226 43.0564ZM69.8426 52.9629L72.276 54.3479L72.3844 54.1574L72.4619 53.9524L69.8426 52.9629ZM67.5 57.0786L69.7508 58.744L69.8505 58.6093L69.9334 58.4636L67.5 57.0786ZM65 60.4573L67.1377 62.2657L67.1966 62.1961L67.2508 62.1227L65 60.4573ZM63 62.8214L64.6952 65.05L64.9395 64.8641L65.1377 64.6298L63 62.8214ZM61.1126 64.2571V67.0571H62.0565L62.8078 66.4857L61.1126 64.2571ZM41.5744 64.2571L40.9194 61.5348L41.5744 67.0571V64.2571ZM49.98 60.4573L51.7199 62.6511L51.723 62.6487L49.98 60.4573ZM53.58 36.5957L51.2441 38.1397L53.58 36.5957ZM44.94 29.9627L43.8585 32.5454L43.8656 32.5484L43.8727 32.5513L44.94 29.9627ZM24.69 27.5507H21.89V30.3507H24.69V27.5507ZM24.69 14.7154V11.9154H21.89V14.7154H24.69ZM51.69 14.7154V17.5154H54.49V14.7154H51.69ZM51.69 3.94757H54.49V1.14757H51.69V3.94757ZM11.1 3.94757V1.14757H8.3V3.94757H11.1ZM11.1 64.2571V67.0571H13.9V64.2571H11.1ZM3 64.2571V61.4571H0.2V64.2571H3ZM3 70H0.2V72.8H3V70ZM69 70V72.8H70.0016L70.7759 72.1647L69 70ZM75.1854 64.9254L76.9614 67.0901L77.0312 67.0328L77.0973 66.9711L75.1854 64.9254ZM76.4126 63.7786L78.3244 65.8243L78.4874 65.672L78.6242 65.4958L76.4126 63.7786ZM80.5 58.5143L82.7116 60.2315L82.7933 60.1263L82.8646 60.0139L80.5 58.5143ZM84.7826 49.431L82.0479 48.8295L82.0474 48.8318L84.7826 49.431ZM86.2226 41.9366L88.9827 42.4074L88.9843 42.3982L86.2226 41.9366ZM87.5726 32.8916L84.8033 32.4782L84.8 32.5003L84.797 32.5225L87.5726 32.8916ZM88.8326 23.4159L86.0579 23.0401L86.0543 23.0665L86.0513 23.093L88.8326 23.4159ZM90.0026 14.8016V12.0016H87.5583L87.2282 14.4235L90.0026 14.8016ZM105.753 14.8016H108.553V12.0016H105.753V14.8016ZM105.753 65.4536H102.953V68.2536H105.753V65.4536ZM105.8 65.4536H108.6V62.6536H105.8V65.4536ZM105.8 70H103V72.8H105.8V70ZM232 70V72.8H234.8V70H232ZM232 64.2571H234.8V61.4571H232V64.2571ZM220.774 64.2571H217.974V67.0571H220.774V64.2571ZM220.774 14.7154V11.9154H217.974V14.7154H220.774ZM247.774 14.7154V17.5154H250.574V14.7154H247.774ZM247.774 3.94757H250.574V1.14757H247.774V3.94757ZM207.184 3.94757V1.14757H204.384V3.94757H207.184ZM207.184 64.2571V67.0571H209.984V64.2571H207.184ZM176.487 64.2571L175.525 61.6276L176.487 67.0571V64.2571ZM180.553 62.3524L179.136 59.9378V59.9378L180.553 62.3524ZM150.853 49.8617L148.55 51.4537L148.556 51.4621L148.561 51.4704L150.853 49.8617ZM150.853 19.3671L153.145 20.9759L153.145 20.9758L150.853 19.3671ZM175.783 19.3671L173.474 20.9505L175.783 19.3671ZM175.783 49.8617L178.092 51.4451L178.098 51.4367L178.104 51.4284L175.783 49.8617ZM24.69 54.7719H21.89V57.5719H24.69V54.7719ZM24.69 38.2324V35.4324H21.89V38.2324H24.69ZM38.73 39.783L39.7714 37.1839H39.7714L38.73 39.783ZM39 52.8767L37.6957 50.3991L37.6827 50.4059L37.6697 50.4129L39 52.8767ZM191.073 34.6144C191.073 40.6657 190.02 45.8178 188.005 50.144L193.081 52.5083C195.506 47.3014 196.673 41.3123 196.673 34.6144H191.073ZM188.01 19.1828C190.019 23.4443 191.073 28.5619 191.073 34.6144H196.673C196.673 27.9178 195.507 21.9517 193.076 16.7949L188.01 19.1828ZM179.159 9.39066C183.145 11.6799 186.073 14.908 187.993 19.1446L193.093 16.8332C190.693 11.5366 186.961 7.41384 181.948 4.53448L179.159 9.39066ZM163.363 5.8C169.986 5.8 175.186 7.05849 179.136 9.37724L181.971 4.5479C176.921 1.58322 170.66 0.2 163.363 0.2V5.8ZM147.397 9.38537C151.411 7.05957 156.678 5.8 163.363 5.8V0.2C156.009 0.2 149.695 1.58214 144.59 4.53977L147.397 9.38537ZM138.446 19.0967C140.422 14.9038 143.386 11.6887 147.388 9.39066L144.599 4.53448C139.6 7.40503 135.844 11.4833 133.38 16.7087L138.446 19.0967ZM135.473 34.5283C135.473 28.466 136.5 23.3387 138.458 19.0701L133.368 16.7353C131.006 21.885 129.873 27.8414 129.873 34.5283H135.473ZM138.463 50.0843C136.5 45.751 135.473 40.5893 135.473 34.5283H129.873C129.873 41.2164 131.006 47.1958 133.363 52.3957L138.463 50.0843ZM147.411 59.9378C143.405 57.586 140.433 54.3136 138.451 50.0578L133.375 52.4222C135.833 57.6995 139.582 61.8354 144.576 64.7671L147.411 59.9378ZM151.053 61.626C149.738 61.1473 148.521 60.5807 147.397 59.9296L144.59 64.7752C146.013 65.6001 147.531 66.3034 149.138 66.8883L151.053 61.626ZM150 67.0571H150.096V61.4571H150V67.0571ZM142.5 67.0571H150V61.4571H142.5V67.0571ZM134.166 67.0571H142.5V61.4571H134.166V67.0571ZM127.5 67.0571H134.166V61.4571H127.5V67.0571ZM119.343 67.0571H127.5V61.4571H119.343V67.0571ZM122.143 64.2571V3.94757H116.543V64.2571H122.143ZM119.343 1.14757H78.7526V6.74757H119.343V1.14757ZM75.9731 3.60925C75.2568 9.49428 74.4814 15.0596 73.6473 20.3058L79.1778 21.1851C80.0238 15.8644 80.8084 10.2311 81.5321 4.28589L75.9731 3.60925ZM73.6432 20.3321C72.8651 25.5458 72.1479 30.0928 71.4917 33.9755L77.0134 34.9088C77.6772 30.9812 78.4001 26.3971 79.1819 21.1588L73.6432 20.3321ZM71.4917 33.9755C70.8324 37.8769 70.3274 40.7183 69.9748 42.5182L75.4704 43.5947C75.8378 41.7192 76.3528 38.8176 77.0134 34.9087L71.4917 33.9755ZM69.9764 42.5099C69.5256 44.7755 68.8403 47.1399 68.256 48.9647C67.9658 49.8707 67.705 50.6301 67.5175 51.1605C67.4239 51.4255 67.3488 51.6326 67.2979 51.7717C67.2724 51.8412 67.253 51.8936 67.2403 51.9277C67.234 51.9447 67.2293 51.9571 67.2265 51.9648C67.225 51.9686 67.224 51.9713 67.2235 51.9727C67.2232 51.9734 67.2231 51.9738 67.223 51.9739C67.223 51.974 67.223 51.974 67.2231 51.9739C67.2231 51.9738 67.2231 51.9737 67.2231 51.9737C67.2232 51.9735 67.2233 51.9733 69.8426 52.9629C72.4619 53.9524 72.462 53.9522 72.4621 53.9519C72.4621 53.9518 72.4622 53.9516 72.4623 53.9514C72.4624 53.951 72.4626 53.9505 72.4628 53.9499C72.4632 53.9488 72.4638 53.9473 72.4645 53.9456C72.4658 53.9421 72.4675 53.9374 72.4698 53.9315C72.4742 53.9196 72.4805 53.9029 72.4884 53.8815C72.5043 53.8388 72.5271 53.7773 72.556 53.6984C72.6138 53.5407 72.6962 53.3131 72.7976 53.0262C73.0002 52.4529 73.2793 51.6402 73.5892 50.6726C74.2048 48.7501 74.9596 46.1614 75.4687 43.6029L69.9764 42.5099ZM67.4091 51.5778L65.0666 55.6935L69.9334 58.4636L72.276 54.3479L67.4091 51.5778ZM65.2492 55.4131L62.7492 58.7918L67.2508 62.1227L69.7508 58.744L65.2492 55.4131ZM62.8623 58.6489L60.8623 61.013L65.1377 64.6298L67.1377 62.2657L62.8623 58.6489ZM61.3048 60.5929L59.4174 62.0286L62.8078 66.4857L64.6952 65.05L61.3048 60.5929ZM61.1126 61.4571H41.5744V67.0571H61.1126V61.4571ZM42.2295 66.9794C45.9704 66.0793 49.1757 64.6688 51.7198 62.6511L48.2402 58.2635C46.4948 59.6476 44.0965 60.7703 40.9194 61.5348L42.2295 66.9794ZM51.723 62.6487C56.7358 58.6616 59.17 53.0697 59.17 46.2437H53.57C53.57 51.5926 51.7442 55.4764 48.237 58.2659L51.723 62.6487ZM59.17 46.2437C59.17 42.1184 58.1008 38.3574 55.9159 35.0518L51.2441 38.1397C52.7792 40.462 53.57 43.133 53.57 46.2437H59.17ZM55.9159 35.0518C53.6775 31.6654 50.2949 29.1419 46.0073 27.3741L43.8727 32.5513C47.3851 33.9995 49.7625 35.898 51.2441 38.1397L55.9159 35.0518ZM46.0215 27.38C41.7203 25.5789 36.3663 24.7507 30.09 24.7507V30.3507C35.9337 30.3507 40.4797 31.1306 43.8585 32.5454L46.0215 27.38ZM30.09 24.7507H24.69V30.3507H30.09V24.7507ZM27.49 27.5507V14.7154H21.89V27.5507H27.49ZM24.69 17.5154H51.69V11.9154H24.69V17.5154ZM54.49 14.7154V3.94757H48.89V14.7154H54.49ZM51.69 1.14757H11.1V6.74757H51.69V1.14757ZM8.3 3.94757V64.2571H13.9V3.94757H8.3ZM11.1 61.4571H3V67.0571H11.1V61.4571ZM0.2 64.2571V70H5.8V64.2571H0.2ZM3 72.8H69V67.2H3V72.8ZM70.7759 72.1647L76.9614 67.0901L73.4095 62.7607L67.2241 67.8353L70.7759 72.1647ZM77.0973 66.9711L78.3244 65.8243L74.5007 61.7329L73.2736 62.8797L77.0973 66.9711ZM78.6242 65.4958L82.7116 60.2315L78.2884 56.7971L74.201 62.0614L78.6242 65.4958ZM80.5 58.5143C82.8646 60.0139 82.8647 60.0137 82.8649 60.0134C82.8649 60.0133 82.8651 60.013 82.8653 60.0128C82.8656 60.0123 82.8659 60.0118 82.8663 60.0111C82.8671 60.0099 82.8681 60.0083 82.8694 60.0063C82.8718 60.0025 82.8751 59.9972 82.8792 59.9907C82.8874 59.9777 82.8989 59.9595 82.9134 59.9362C82.9425 59.8897 82.9839 59.8232 83.0361 59.7385C83.1404 59.5691 83.2881 59.3265 83.4669 59.0256C83.8235 58.425 84.308 57.5849 84.8197 56.6249C85.8001 54.7855 87.0381 52.2194 87.5177 50.0302L82.0474 48.8318C81.747 50.2032 80.8437 52.1787 79.8779 53.9908C79.4164 54.8566 78.9765 55.6196 78.6521 56.1659C78.4903 56.4383 78.3582 56.655 78.268 56.8016C78.2229 56.8748 78.1882 56.9304 78.1656 56.9666C78.1543 56.9846 78.146 56.9978 78.141 57.0059C78.1384 57.01 78.1367 57.0127 78.1357 57.0142C78.1353 57.0149 78.135 57.0153 78.135 57.0154C78.1349 57.0155 78.135 57.0154 78.135 57.0153C78.1351 57.0152 78.1352 57.0151 78.1352 57.015C78.1353 57.0149 78.1354 57.0147 80.5 58.5143ZM87.5172 50.0325C88.0089 47.7969 88.4972 45.2538 88.9827 42.4074L83.4624 41.4658C82.988 44.2473 82.5162 46.7005 82.0479 48.8295L87.5172 50.0325ZM88.9843 42.3982C89.4699 39.4933 89.9244 36.4473 90.3481 33.2606L84.797 32.5225C84.3807 35.653 83.9353 38.637 83.4609 41.4749L88.9843 42.3982ZM90.3419 33.3049C90.8262 30.0601 91.2503 26.8713 91.6139 23.7387L86.0513 23.093C85.6949 26.1627 85.279 29.2911 84.8033 32.4782L90.3419 33.3049ZM91.6072 23.7916C92.0272 20.6911 92.4171 17.8205 92.7769 15.1797L87.2282 14.4235C86.8681 17.0661 86.478 19.9383 86.0579 23.0401L91.6072 23.7916ZM90.0026 17.6016H105.753V12.0016H90.0026V17.6016ZM102.953 14.8016V65.4536H108.553V14.8016H102.953ZM105.753 68.2536H105.8V62.6536H105.753V68.2536ZM108.6 70V65.4536H103V70H108.6ZM127.5 67.2H105.8V72.8H127.5V67.2ZM133.166 67.2H127.5V72.8H133.166V67.2ZM137.833 67.2H133.166V72.8H137.833V67.2ZM142.5 67.2H137.833V72.8H142.5V67.2ZM150 67.2H142.5V72.8H150V67.2ZM232 67.2H150V72.8H232V67.2ZM229.2 64.2571V70H234.8V64.2571H229.2ZM220.774 67.0571H232V61.4571H220.774V67.0571ZM223.574 64.2571V14.7154H217.974V64.2571H223.574ZM220.774 17.5154H247.774V11.9154H220.774V17.5154ZM250.574 14.7154V3.94757H244.974V14.7154H250.574ZM247.774 1.14757H207.184V6.74757H247.774V1.14757ZM204.384 3.94757V64.2571H209.984V3.94757H204.384ZM176.487 67.0571H207.184V61.4571H176.487V67.0571ZM179.136 59.9378C178.032 60.5855 176.83 61.15 175.525 61.6276L177.449 66.8867C179.051 66.3006 180.56 65.5953 181.971 64.7671L179.136 59.9378ZM187.998 50.1588C186.079 54.3425 183.145 57.5842 179.136 59.9378L181.971 64.7671C186.962 61.8372 190.687 57.7281 193.088 52.4935L187.998 50.1588ZM144.183 34.6144C144.183 41.3867 145.537 47.0948 148.55 51.4537L153.157 48.2697C151.009 45.1629 149.783 40.7061 149.783 34.6144H144.183ZM148.561 17.7584C145.533 22.0724 144.183 27.7945 144.183 34.6144H149.783C149.783 28.4555 151.013 24.0128 153.145 20.9759L148.561 17.7584ZM163.363 11.054C156.978 11.054 151.811 13.1287 148.561 17.7584L153.145 20.9758C155.055 18.2547 158.228 16.654 163.363 16.654V11.054ZM178.092 17.7838C174.9 13.1283 169.745 11.054 163.363 11.054V16.654C168.501 16.654 171.626 18.2551 173.474 20.9505L178.092 17.7838ZM182.363 34.6144C182.363 27.8052 181.047 22.0934 178.092 17.7838L173.474 20.9505C175.559 23.9917 176.763 28.4448 176.763 34.6144H182.363ZM178.104 51.4284C181.044 47.0738 182.363 41.3759 182.363 34.6144H176.763C176.763 40.7169 175.563 45.1839 173.462 48.2951L178.104 51.4284ZM163.273 58.1749C169.703 58.1749 174.895 56.1086 178.092 51.4451L173.474 48.2784C171.631 50.9657 168.484 52.5749 163.273 52.5749V58.1749ZM148.561 51.4704C151.806 56.0921 156.935 58.1749 163.273 58.1749V52.5749C158.211 52.5749 155.061 50.9822 153.145 48.253L148.561 51.4704ZM24.69 57.5719H29.28V51.9719H24.69V57.5719ZM21.89 38.2324V54.7719H27.49V38.2324H21.89ZM28.2 35.4324H24.69V41.0324H28.2V35.4324ZM39.7714 37.1839C36.7218 35.962 32.8089 35.4324 28.2 35.4324V41.0324C32.4711 41.0324 35.5782 41.5366 37.6886 42.3821L39.7714 37.1839ZM45.4 46.2437C45.4 44.2508 45.0078 42.3594 44.0345 40.7346C43.0412 39.0763 41.5653 37.9026 39.7714 37.1839L37.6886 42.3821C38.4747 42.6971 38.9338 43.117 39.2305 43.6123C39.5472 44.1411 39.8 44.9632 39.8 46.2437H45.4ZM40.3043 55.3544C43.7943 53.5171 45.4 50.2343 45.4 46.2437H39.8C39.8 48.5703 39.0057 49.7094 37.6957 50.3991L40.3043 55.3544ZM29.28 57.5719C33.6498 57.5719 37.4157 56.9142 40.3303 55.3405L37.6697 50.4129C35.9043 51.3661 33.1902 51.9719 29.28 51.9719V57.5719Z" fill="white" mask="url(#path-1-outside-1)"/>
</svg>
