<svg width="24" height="17" viewBox="0 0 24 17" fill="none" xmlns="http://www.w3.org/2000/svg">
<path d="M22.8259 7.98683C22.6297 7.71839 17.9542 1.41406 11.9827 1.41406C6.01115 1.41406 1.3354 7.71839 1.13939 7.98657C0.953538 8.24123 0.953538 8.58663 1.13939 8.8413C1.3354 9.10973 6.01115 15.4141 11.9827 15.4141C17.9542 15.4141 22.6297 9.10969 22.8259 8.84151C23.012 8.58689 23.012 8.24123 22.8259 7.98683ZM11.9827 13.9658C7.58401 13.9658 3.77431 9.78148 2.64656 8.41357C3.77285 7.04445 7.57457 2.86233 11.9827 2.86233C16.3811 2.86233 20.1905 7.04591 21.3187 8.41456C20.1925 9.78363 16.3907 13.9658 11.9827 13.9658Z" fill="#ACACAC"/>
<path d="M11.9825 4.07031C9.58684 4.07031 7.6377 6.01946 7.6377 8.41516C7.6377 10.8109 9.58684 12.76 11.9825 12.76C14.3782 12.76 16.3274 10.8109 16.3274 8.41516C16.3274 6.01946 14.3782 4.07031 11.9825 4.07031ZM11.9825 11.3117C10.3853 11.3117 9.08601 10.0123 9.08601 8.41516C9.08601 6.81798 10.3854 5.51862 11.9825 5.51862C13.5797 5.51862 14.8791 6.81798 14.8791 8.41516C14.8791 10.0123 13.5798 11.3117 11.9825 11.3117Z" fill="#ACACAC"/>
<path d="M1.28125 1L23.2812 16" stroke="#ACACAC" stroke-width="1.4"/>
</svg>
