<svg width="20" height="20" viewBox="0 0 20 20" fill="none" xmlns="http://www.w3.org/2000/svg">
<path fill-rule="evenodd" clip-rule="evenodd" d="M14.0636 13.5257L19.8907 19.3607C20.0405 19.511 20.0358 19.75 19.8797 19.8946C19.8036 19.9649 19.706 20 19.608 20C19.5048 20 19.4021 19.9615 19.3252 19.8841L13.484 14.0347C12.0581 15.1731 10.2287 15.8592 8.23534 15.8592C3.69414 15.8592 0 12.3022 0 7.92962C0 3.557 3.69414 0 8.23534 0C12.7765 0 16.4707 3.557 16.4707 7.92962C16.4707 10.1118 15.5499 12.0904 14.0636 13.5257ZM0.869565 8C0.869565 11.9702 4.18515 15.2 8.26087 15.2C12.3362 15.2 15.6522 11.9702 15.6522 8C15.6522 4.02977 12.3366 0.8 8.26087 0.8C4.18515 0.8 0.869565 4.02977 0.869565 8Z" fill="#1FB14D"/>
</svg>
