<svg width="137" height="90" viewBox="0 0 137 90" fill="none" xmlns="http://www.w3.org/2000/svg" xmlns:xlink="http://www.w3.org/1999/xlink">
            <path d="M7.99999 90C3.58171 90 0 86.4183 0 82L0 61.1501C0 58.2234 1.62409 55.5593 3.96939 53.8086C6.90122 51.6201 10.3846 48.3211 10.3846 45C10.3846 41.6789 6.90122 38.3799 3.96939 36.1914C1.62409 34.4407 0 31.7766 0 28.8499L0 8C0 3.58172 3.58172 0 8 0L128.385 0C132.803 0 136.385 3.58172 136.385 8V28.7319C136.385 31.7208 134.688 34.4283 132.281 36.2007C129.378 38.3387 126 41.5647 126 45C126 48.4353 129.378 51.6613 132.281 53.7993C134.688 55.5717 136.385 58.2792 136.385 61.2681V82C136.385 86.4183 132.803 90 128.385 90L7.99999 90Z" fill="#190569" fill-opacity="0.6"/>
            <path d="M7.99999 90C3.58171 90 0 86.4183 0 82L0 61.1501C0 58.2234 1.62409 55.5593 3.96939 53.8086C6.90122 51.6201 10.3846 48.3211 10.3846 45C10.3846 41.6789 6.90122 38.3799 3.96939 36.1914C1.62409 34.4407 0 31.7766 0 28.8499L0 8C0 3.58172 3.58172 0 8 0L128.385 0C132.803 0 136.385 3.58172 136.385 8V28.7319C136.385 31.7208 134.688 34.4283 132.281 36.2007C129.378 38.3387 126 41.5647 126 45C126 48.4353 129.378 51.6613 132.281 53.7993C134.688 55.5717 136.385 58.2792 136.385 61.2681V82C136.385 86.4183 132.803 90 128.385 90L7.99999 90Z" fill="url(#pattern0)"/>
            <path d="M7.99999 90C3.58171 90 0 86.4183 0 82L0 61.1501C0 58.2234 1.62409 55.5593 3.96939 53.8086C6.90122 51.6201 10.3846 48.3211 10.3846 45C10.3846 41.6789 6.90122 38.3799 3.96939 36.1914C1.62409 34.4407 0 31.7766 0 28.8499L0 8C0 3.58172 3.58172 0 8 0L128.385 0C132.803 0 136.385 3.58172 136.385 8V28.7319C136.385 31.7208 134.688 34.4283 132.281 36.2007C129.378 38.3387 126 41.5647 126 45C126 48.4353 129.378 51.6613 132.281 53.7993C134.688 55.5717 136.385 58.2792 136.385 61.2681V82C136.385 86.4183 132.803 90 128.385 90L7.99999 90Z" fill="#190569" fill-opacity="0.1"/>
            <path d="M7.99999 90C3.58171 90 0 86.4183 0 82L0 61.1501C0 58.2234 1.62409 55.5593 3.96939 53.8086C6.90122 51.6201 10.3846 48.3211 10.3846 45C10.3846 41.6789 6.90122 38.3799 3.96939 36.1914C1.62409 34.4407 0 31.7766 0 28.8499L0 8C0 3.58172 3.58172 0 8 0L128.385 0C132.803 0 136.385 3.58172 136.385 8V28.7319C136.385 31.7208 134.688 34.4283 132.281 36.2007C129.378 38.3387 126 41.5647 126 45C126 48.4353 129.378 51.6613 132.281 53.7993C134.688 55.5717 136.385 58.2792 136.385 61.2681V82C136.385 86.4183 132.803 90 128.385 90L7.99999 90Z" fill="url(#paint0_linear)" fill-opacity="0.7"/>
            <defs>
                <pattern id="pattern0" width="100%" height="100%">
                    <image id="image0" width="100%" height="100%" xlink:href="/images/site/test/img.png" preserveAspectRatio="xMidYMid slice"/>
                </pattern>
                <linearGradient id="paint0_linear" x1="57.8077" y1="90" x2="57.8077" y2="0" gradientUnits="userSpaceOnUse">
                    <stop stop-color="#180077"/>
                    <stop offset="0.357692" stop-color="#301C7F" stop-opacity="0.65"/>
                    <stop offset="0.65" stop-color="#493988" stop-opacity="0.3"/>
                    <stop offset="1" stop-color="white" stop-opacity="0"/>
                </linearGradient>
            </defs>
        </svg>
