<svg width="22" height="14" viewBox="0 0 22 14" fill="none" xmlns="http://www.w3.org/2000/svg">
<path d="M21.8259 6.57276C21.6297 6.30433 16.9542 0 10.9827 0C5.01115 0 0.335404 6.30433 0.139387 6.57251C-0.0464623 6.82717 -0.0464623 7.17257 0.139387 7.42723C0.335404 7.69567 5.01115 14 10.9827 14C16.9542 14 21.6297 7.69563 21.8259 7.42745C22.012 7.17283 22.012 6.82717 21.8259 6.57276ZM10.9827 12.5517C6.58401 12.5517 2.77431 8.36742 1.64656 6.99951C2.77285 5.63039 6.57457 1.44827 10.9827 1.44827C15.3811 1.44827 19.1905 5.63185 20.3187 7.00049C19.1925 8.36957 15.3907 12.5517 10.9827 12.5517Z" fill="#ACACAC"/>
<path d="M10.9825 2.65625C8.58684 2.65625 6.6377 4.60539 6.6377 7.0011C6.6377 9.3968 8.58684 11.3459 10.9825 11.3459C13.3782 11.3459 15.3274 9.3968 15.3274 7.0011C15.3274 4.60539 13.3782 2.65625 10.9825 2.65625ZM10.9825 9.89763C9.38532 9.89763 8.08601 8.59828 8.08601 7.0011C8.08601 5.40392 9.38536 4.10456 10.9825 4.10456C12.5797 4.10456 13.8791 5.40392 13.8791 7.0011C13.8791 8.59828 12.5798 9.89763 10.9825 9.89763Z" fill="#ACACAC"/>
</svg>
