<svg width="30" height="30" viewBox="0 0 30 30" fill="none" xmlns="http://www.w3.org/2000/svg">
<rect x="0.5" y="0.5" width="29" height="29" rx="2.5" stroke="#555555" stroke-opacity="0.1"/>
<path d="M13.75 14.7422H8.82031V18.7734H14.5469V20H7.32031V8.625H14.4688V9.85938H8.82031V13.5156H13.75V14.7422ZM17.5547 11.5469L17.6016 12.6094C18.2474 11.7969 19.0911 11.3906 20.1328 11.3906C21.9193 11.3906 22.8203 12.3984 22.8359 14.4141V20H21.3906V14.4062C21.3854 13.7969 21.2448 13.3464 20.9688 13.0547C20.6979 12.763 20.2734 12.6172 19.6953 12.6172C19.2266 12.6172 18.8151 12.7422 18.4609 12.9922C18.1068 13.2422 17.8307 13.5703 17.6328 13.9766V20H16.1875V11.5469H17.5547Z" fill="#5E6973"/>
</svg>
