<svg width="39" height="35" viewBox="0 0 39 35" fill="none" xmlns="http://www.w3.org/2000/svg">
<path id="ico_logo_bw" fill-rule="evenodd" clip-rule="evenodd" d="M29.1598 32.0897C29.0309 32.1578 28.9002 32.2247 28.7666 32.2909C28.7666 32.2909 26.5332 33.4843 23.6847 34.2889C19.4531 35.3849 15.1487 35.2607 11.1086 33.5895C6.10232 31.661 2.3508 28.2076 0.682521 21.984C-2.47787 10.1949 5.71638 0 17.4355 0C25.3415 0 33.5557 5.48852 34.0093 14.6453C34.4304 23.1476 28.1608 27.9652 21.4519 28.7575C17.031 29.2795 12.3081 28.3312 9.57673 24.553C3.3602 15.9534 11.8826 5.26286 21.1784 8.27396C25.421 9.6484 27.8458 15.0821 24.5237 19.1129C22.5754 21.4767 20.1655 21.7142 17.5364 21.1956C16.2376 20.7973 15.509 19.324 15.9089 17.9049C16.3089 16.4859 17.6861 15.6584 18.9848 16.0569C22.5989 16.8781 21.9756 11.9915 16.6068 12.9048C9.04864 14.1907 10.5944 25.6865 21.0154 24.9304C32.6189 24.0887 33.5634 8.26248 22.2643 4.42169C18.6484 3.25259 14.3129 3.78606 11.0072 5.65842C6.43669 8.24705 3.50474 13.2835 4.20052 18.912C6.01883 33.6198 27.2349 35.5093 34.4912 22.713C34.4166 24.6983 34.0857 26.3667 34.2405 27.8953C34.4636 30.0998 35.5017 31.9975 38.1343 33.9978C38.1343 33.9978 33.7399 34.8195 29.4008 31.951C29.3126 32.0035 29.2318 32.0498 29.1598 32.0897Z" fill="white"/>
</svg>
