<svg width="42" height="42" viewBox="0 0 42 42" fill="none" xmlns="http://www.w3.org/2000/svg">
<rect width="42" height="42" rx="6" fill="url(#paint0_linear)"/>
<path fill-rule="evenodd" clip-rule="evenodd" d="M30.2666 33.9956C30.15 34.0562 30.0315 34.1158 29.9106 34.1748C29.9106 34.1748 27.8885 35.2379 25.3093 35.9546C21.478 36.9309 17.5807 36.8203 13.9227 35.3316C9.38991 33.6137 5.99321 30.5374 4.48271 24.9935C1.62124 14.4917 9.04047 5.41016 19.6512 5.41016C26.8094 5.41016 34.2468 10.2993 34.6575 18.4561C35.0387 26.03 29.3621 30.3215 23.2877 31.0273C19.285 31.4923 15.0087 30.6475 12.5357 27.2819C6.90714 19.6214 14.6235 10.0983 23.0401 12.7806C26.8814 14.0049 29.0769 18.8452 26.069 22.4359C24.305 24.5415 22.123 24.7531 19.7425 24.2911C18.5666 23.9363 17.9069 22.6239 18.269 21.3598C18.6311 20.0957 19.8781 19.3586 21.0539 19.7136C24.3263 20.4451 23.7619 16.0921 18.9008 16.9058C12.0576 18.0512 13.4571 28.2916 22.8925 27.6181C33.3985 26.8683 34.2538 12.7704 24.0233 9.34898C20.7494 8.30756 16.824 8.78277 13.8309 10.4507C9.69266 12.7566 7.03801 17.2431 7.66799 22.2569C9.31432 35.3586 28.5238 37.0417 35.0938 25.6428C35.0263 27.4113 34.7267 28.8976 34.8668 30.2592C35.0688 32.223 36.0088 33.9135 38.3924 35.6954C38.3924 35.6954 34.4135 36.4273 30.4849 33.872C30.405 33.9188 30.3319 33.9601 30.2666 33.9956Z" fill="#FFFFFE"/>
<defs>
<linearGradient id="paint0_linear" x1="42" y1="-1.28299e-06" x2="-1.05" y2="41.79" gradientUnits="userSpaceOnUse">
<stop stop-color="#1BB9F8"/>
<stop offset="1" stop-color="#AF01FA"/>
</linearGradient>
</defs>
</svg>
