<svg width="189" height="48" viewBox="0 0 189 48" fill="none" xmlns="http://www.w3.org/2000/svg">
<path d="M93.629 27.0962C89.785 27.1147 86.6829 30.2959 86.6946 34.2058C86.7079 38.1157 89.8284 41.2749 93.6723 41.2699C97.5145 41.2648 100.627 38.0938 100.627 34.1839C100.64 33.2481 100.469 32.3189 100.121 31.4512C99.7742 30.5834 99.2585 29.7946 98.6047 29.1311C97.9541 28.4707 97.1779 27.95 96.3228 27.6003C95.4677 27.2506 94.5514 27.0791 93.629 27.0962ZM93.629 38.4877C92.7804 38.5465 91.9341 38.3454 91.2006 37.9105C90.4672 37.4757 89.8808 36.8274 89.5183 36.0505C89.1526 35.2715 89.0258 34.3999 89.1541 33.5476C89.2824 32.6953 89.66 31.9011 90.2385 31.267C90.8133 30.6356 91.564 30.1948 92.3917 30.0025C93.2195 29.8102 94.0855 29.8755 94.8758 30.1898C95.6682 30.5075 96.3478 31.0581 96.8269 31.7701C97.306 32.4822 97.5623 33.3231 97.5629 34.1839C97.6162 35.288 97.2295 36.3686 96.4877 37.1799C96.1225 37.5804 95.6812 37.9026 95.19 38.1273C94.6989 38.352 94.168 38.4745 93.629 38.4877ZM78.3683 27.0962C74.5228 27.1063 71.4123 30.2841 71.419 34.1957C71.4256 38.1073 74.5461 41.2732 78.3917 41.2699C82.2356 41.2665 85.3511 38.0955 85.3511 34.1839C85.3649 33.2477 85.1929 32.3181 84.8454 31.4501C84.4978 30.582 83.9817 29.7929 83.3274 29.1294C82.6765 28.4691 81.8999 27.9486 81.0445 27.5992C80.1891 27.2497 79.2726 27.0787 78.35 27.0962H78.3667H78.3683ZM78.3683 38.4877C77.5195 38.5496 76.6718 38.3512 75.9366 37.9184C75.2013 37.4856 74.6126 36.8386 74.2477 36.0623C73.8794 35.2838 73.7501 34.4119 73.8763 33.5586C74.0025 32.7053 74.3786 31.9096 74.9562 31.2738C75.5304 30.6409 76.281 30.1985 77.1091 30.005C77.9373 29.8115 78.804 29.876 79.5952 30.1898C80.3882 30.507 81.0686 31.0573 81.5482 31.7694C82.0279 32.4815 82.2848 33.3227 82.2856 34.1839C82.3406 35.2897 81.9522 36.3703 81.2104 37.1799C80.845 37.5806 80.4035 37.9029 79.912 38.1276C79.4206 38.3523 78.8893 38.4748 78.35 38.4877H78.3667H78.3683ZM60.1906 29.2809V32.282H67.2717C67.1621 33.6943 66.5849 35.0282 65.6331 36.069C64.9272 36.8017 64.0764 37.3763 63.1362 37.7553C62.1959 38.1343 61.1872 38.3092 60.1756 38.2688C55.875 38.2032 52.4245 34.64 52.4245 30.2656C52.4245 25.8894 55.875 22.3262 60.1756 22.2623C61.1648 22.2465 62.1474 22.4283 63.0668 22.7972C63.9862 23.166 64.8243 23.7147 65.5331 24.4116L67.6167 22.2943C66.6504 21.2966 65.4947 20.5062 64.2186 19.9703C62.9426 19.4343 61.5726 19.164 60.1906 19.1754C58.2394 19.1027 56.3051 19.5646 54.5929 20.5123C52.8808 21.46 51.4546 22.858 50.4659 24.5581C49.47 26.2645 48.9448 28.2091 48.9448 30.1898C48.9448 32.1705 49.47 34.1151 50.4659 35.8216C51.4549 37.5213 52.8811 38.919 54.5932 39.8664C56.3054 40.8138 58.2396 41.2755 60.1906 41.2025C61.5956 41.2661 62.9977 41.0234 64.3015 40.4911C65.6054 39.9587 66.7804 39.1491 67.7468 38.1174C69.4657 36.1929 70.3819 33.6722 70.3038 31.0819C70.309 30.4496 70.2537 29.8183 70.1388 29.1968L60.1906 29.2809ZM134.455 31.6171C134.032 30.3412 133.235 29.2254 132.169 28.4182C131.103 27.6109 129.819 27.1504 128.487 27.0979C127.59 27.0971 126.702 27.283 125.878 27.6441C125.055 28.0052 124.314 28.5338 123.702 29.1968C123.086 29.863 122.612 30.6491 122.307 31.5069C122.003 32.3647 121.875 33.2762 121.931 34.1856C121.911 35.1164 122.075 36.042 122.415 36.9076C122.755 37.7731 123.263 38.5611 123.91 39.2249C124.554 39.8853 125.323 40.4071 126.172 40.7588C127.021 41.1106 127.932 41.285 128.849 41.2716C129.998 41.2766 131.13 40.9926 132.143 40.4451C133.156 39.8976 134.019 39.104 134.652 38.1359L132.275 36.4696C131.922 37.0695 131.421 37.5662 130.82 37.9109C130.219 38.2557 129.54 38.4364 128.849 38.4355C128.137 38.4618 127.434 38.2706 126.831 37.8868C126.229 37.503 125.755 36.9446 125.472 36.2844L134.798 32.3661L134.455 31.6171ZM124.947 33.9836C124.914 33.4685 124.982 32.9518 125.148 32.4636C125.314 31.9754 125.574 31.5252 125.914 31.1391C126.597 30.3598 127.561 29.8936 128.586 29.8481C129.116 29.814 129.644 29.9382 130.105 30.2052C130.565 30.4721 130.938 30.8701 131.176 31.3495L124.949 33.9836H124.947ZM117.376 40.8541H120.443V20.0102H117.376V40.8541ZM112.362 28.6817H112.245C111.785 28.1572 111.22 27.7372 110.587 27.4497C109.954 27.1621 109.268 27.0135 108.575 27.0138C104.857 27.2023 101.94 30.3228 101.94 34.1098C101.94 37.8952 104.857 41.0157 108.575 41.2042C109.27 41.2153 109.96 41.0716 110.595 40.7833C111.229 40.4951 111.793 40.0693 112.247 39.5362H112.343V40.5545C112.343 43.2728 110.918 44.7237 108.625 44.7237C107.858 44.7036 107.115 44.4531 106.49 44.0043C105.865 43.5555 105.387 42.9286 105.117 42.204L102.445 43.3384C102.943 44.5797 103.798 45.6418 104.899 46.3879C106.001 47.134 107.298 47.5299 108.625 47.5244C112.213 47.5244 115.179 45.3733 115.179 40.1354V27.5153H112.362V28.6817ZM108.855 38.4877C107.793 38.3884 106.807 37.8916 106.091 37.0951C105.374 36.2986 104.979 35.26 104.982 34.1839C104.979 33.1079 105.374 32.0696 106.091 31.2733C106.807 30.4771 107.793 29.9806 108.855 29.8818C109.913 29.9374 110.905 30.4255 111.605 31.235C112.305 32.0446 112.655 33.1084 112.573 34.1839C112.619 34.7182 112.556 35.2563 112.391 35.7658C112.225 36.2754 111.96 36.746 111.61 37.1496C111.262 37.5512 110.836 37.877 110.36 38.1071C109.883 38.3372 109.364 38.4666 108.836 38.4877H108.853H108.855ZM148.811 20.0102H141.484V40.8541H144.552V32.9502H148.829C149.998 33.0321 151.167 32.7863 152.207 32.2398C153.247 31.6933 154.117 30.8674 154.721 29.8532C155.33 28.8353 155.651 27.669 155.651 26.4802C155.651 25.2914 155.33 24.1251 154.721 23.1072C154.117 22.093 153.247 21.2671 152.207 20.7206C151.167 20.1741 149.998 19.9283 148.829 20.0102H148.812H148.811ZM148.811 30.0148H144.535V22.912H148.877C150.819 22.912 152.394 24.5126 152.394 26.4886C152.396 26.9567 152.307 27.4205 152.131 27.8536C151.955 28.2867 151.696 28.6806 151.37 29.0127C151.043 29.3449 150.655 29.6088 150.227 29.7894C149.799 29.97 149.341 30.0637 148.877 30.0653L148.811 30.0148ZM167.71 27.0138C166.592 26.9476 165.479 27.2141 164.509 27.7801C163.539 28.3461 162.754 29.1868 162.253 30.1982L164.973 31.3512C165.239 30.8494 165.644 30.4369 166.139 30.164C166.634 29.8911 167.196 29.7696 167.758 29.8145C168.148 29.7681 168.543 29.8011 168.92 29.9115C169.296 30.022 169.648 30.2076 169.952 30.4574C170.569 30.9624 170.96 31.6996 171.037 32.5008V32.7162C170.054 32.1858 168.955 31.9104 167.84 31.915C164.906 31.915 161.939 33.5813 161.939 36.6025C161.999 37.9019 162.573 39.1222 163.529 39.9856C164.002 40.4126 164.554 40.7391 165.154 40.9455C165.754 41.152 166.389 41.2343 167.022 41.1874C167.795 41.2427 168.569 41.0858 169.262 40.7332C169.954 40.3806 170.54 39.8455 170.955 39.1845H171.054V40.8541H174.004V32.834C174.004 29.1816 171.284 27.0626 167.792 27.0626L167.708 27.0121L167.71 27.0138ZM167.333 38.4355C166.333 38.4355 164.941 37.9204 164.941 36.6682C164.941 35.0019 166.676 34.4515 168.218 34.4515C169.192 34.4274 170.155 34.6693 171.004 35.1517C170.905 36.0514 170.487 36.8845 169.827 37.4976C169.168 38.1107 168.311 38.4623 167.415 38.4877L167.333 38.4372V38.4355ZM184.756 27.5153L181.247 36.5504H181.15L177.511 27.5153H174.233L179.692 40.1556L176.578 47.1743H179.773L188.165 27.5153H184.756ZM157.205 40.8541H160.271V20.0102H157.205V40.8541Z" fill="white"/>
<path d="M1.69607 3.05239C1.68628 3.05566 1.67976 3.07526 1.66998 3.07852C1.64714 3.08179 1.61453 3.07199 1.5917 3.07852C1.41557 3.09812 1.25248 3.16998 1.12201 3.28757C0.561002 3.59462 0.20874 4.22503 0.20874 4.90771V39.8452C0.20874 40.3646 0.437059 40.9101 0.861078 41.2302C1.05678 41.449 1.35359 41.547 1.64388 41.4915C2.0255 41.5111 2.42669 41.4261 2.7659 41.2302C3.47369 40.8186 17.9262 32.4501 17.9262 32.4501L25.4672 28.0861C25.4836 28.0796 25.5031 28.0698 25.5194 28.06L25.6238 28.0077C25.6238 28.0077 25.7249 27.9555 25.7282 27.9555C25.738 27.9457 25.7445 27.9392 25.7543 27.9294C25.9793 27.7987 32.157 24.2383 33.0083 23.7484C33.5954 23.4086 34.0618 22.8566 34.052 22.1805C34.0422 21.5043 33.566 20.9784 33.0344 20.691C32.7408 20.5342 30.836 19.4432 29.0682 18.4176C27.3003 17.3919 25.6238 16.4055 25.6238 16.4055L17.9262 11.9632C17.9262 11.9632 3.93033 3.86899 3.10512 3.3921C2.81483 3.22551 2.4854 3.09159 2.16575 3.05239C2.00593 3.03279 1.85263 3.02626 1.69607 3.05239ZM1.87872 5.29968L18.8917 22.2066L1.87872 39.1135V5.29968ZM5.84494 6.89369C10.0917 9.35003 17.0912 13.4004 17.0912 13.4004L23.8234 17.2939L20.0659 21.0307L5.84494 6.89369ZM25.3107 18.1563C25.7119 18.3914 26.7328 18.9859 28.2332 19.8548C30.001 20.8804 31.8145 21.9192 32.2516 22.1543C32.294 22.1772 32.2809 22.1903 32.3037 22.2066C32.2711 22.2295 32.2613 22.236 32.1733 22.285C31.3709 22.7488 26.1685 25.7735 25.3368 26.257L21.2401 22.2066L25.3107 18.1563ZM20.0659 23.3564L23.8495 27.1193L17.0912 31.0128C17.0912 31.0128 10.2743 34.9521 5.87103 37.4934L20.0659 23.3564Z" fill="white"/>
<path d="M50.8193 10.8003H51.9162C52.1262 10.4182 52.3196 9.94022 52.4963 9.36627C52.6746 8.79232 52.828 8.16115 52.9597 7.47611C53.2364 5.98486 53.3764 4.47172 53.3764 2.95522L53.3747 0.691406H60.5841V10.8003H61.8226V14.8987H60.3958V12.0761H52.2445V14.8987H50.8193V10.8003ZM59.0956 10.8003V1.96722H54.8149V3.60996C54.8158 5.59285 54.55 7.56668 54.0248 9.47736C53.9015 9.9318 53.7414 10.3745 53.5447 10.8003H59.0939H59.0956ZM66.9517 12.2512C66.3682 12.2644 65.7883 12.1538 65.2498 11.9263C64.7782 11.7189 64.3581 11.4085 64.0196 11.0174C63.6799 10.6193 63.4241 10.1554 63.2679 9.65408C63.0969 9.10702 63.0125 8.53615 63.0178 7.96254C63.0178 7.35661 63.1012 6.79108 63.2679 6.26257C63.4234 5.75893 63.6792 5.2927 64.0196 4.8925C64.353 4.50538 64.7631 4.19905 65.2498 3.97688C65.7862 3.74307 66.366 3.62828 66.9501 3.64025C67.5885 3.64025 68.1519 3.75302 68.6437 3.97688C69.1354 4.19905 69.5471 4.5037 69.8822 4.8925C70.2156 5.28131 70.4656 5.73744 70.6339 6.26426C70.8006 6.79108 70.884 7.35661 70.884 7.96254C70.884 8.56846 70.8006 9.13231 70.6339 9.6524C70.4673 10.1742 70.2172 10.6286 69.8822 11.0157C69.5488 11.4045 69.1354 11.7075 68.6437 11.9246C68.1085 12.1516 67.5321 12.2628 66.9517 12.2512ZM66.9517 11.073C67.2951 11.073 67.6218 11.0023 67.9319 10.8643C68.2403 10.7262 68.507 10.5276 68.737 10.2651C68.967 10.0059 69.1471 9.68101 69.2771 9.29558C69.4155 8.86534 69.482 8.41483 69.4738 7.96254C69.4738 7.46265 69.4104 7.01998 69.2787 6.6295C69.1636 6.27025 68.9795 5.9374 68.737 5.64991C68.516 5.39062 68.2411 5.18372 67.9319 5.04398C67.6233 4.90578 67.2893 4.83522 66.9517 4.83696C66.6136 4.83498 66.279 4.90555 65.9699 5.04398C65.6615 5.18368 65.3865 5.39071 65.1648 5.64991C64.9224 5.93783 64.7389 6.27133 64.6247 6.63118C64.4862 7.06081 64.4197 7.51079 64.428 7.96254C64.428 8.46243 64.4914 8.90509 64.6231 9.29558C64.7564 9.6827 64.9348 10.0059 65.1648 10.2667C65.6215 10.7818 66.27 11.0746 66.9517 11.0713V11.073ZM76.1531 12.2512C75.5934 12.2616 75.0374 12.1586 74.5179 11.9482C74.0597 11.7592 73.6515 11.4646 73.326 11.0881C72.9989 10.7013 72.7533 10.2511 72.6042 9.76517C72.4359 9.21247 72.3538 8.63668 72.3609 8.05848C72.3609 7.44245 72.4392 6.86513 72.5959 6.32822C72.7543 5.78961 72.991 5.32507 73.311 4.92448C73.6294 4.52558 74.0245 4.2142 74.4995 3.9853C74.9779 3.75471 75.538 3.64194 76.1864 3.64194C76.6448 3.64194 77.0766 3.6958 77.4783 3.81025C77.8817 3.92134 78.2351 4.09302 78.5451 4.32697C78.8535 4.56093 79.1069 4.85547 79.3052 5.2123C79.5036 5.56576 79.6286 5.98991 79.6803 6.4797H78.3018C78.1967 5.95793 77.9784 5.55397 77.6433 5.26784C77.3099 4.98171 76.8599 4.83696 76.2948 4.83696C75.8147 4.83696 75.4113 4.92785 75.0879 5.10794C74.7748 5.27922 74.5085 5.52613 74.3128 5.82664C74.1211 6.12287 73.9811 6.46623 73.8961 6.85335C73.8128 7.24889 73.7711 7.65284 73.7728 8.05848C73.7728 8.44055 73.8161 8.81252 73.9061 9.17439C73.9944 9.53627 74.1328 9.85606 74.3212 10.1388C74.5095 10.4216 74.7512 10.6471 75.0496 10.8171C75.3463 10.9854 75.7097 11.0713 76.1381 11.0713C76.7965 11.0713 77.3116 10.8962 77.6833 10.5461C78.055 10.1944 78.2801 9.70121 78.3651 9.0633H79.7286C79.5819 10.0934 79.2119 10.8811 78.6151 11.4315C78.02 11.9785 77.1983 12.2512 76.1548 12.2512H76.1531ZM83.5242 5.02884H80.6238V3.83381H87.7565V5.02884H84.8561V12.0761H83.5242V5.02884ZM90.0002 15.3616C89.8435 15.3616 89.6868 15.3498 89.5301 15.3279C89.3756 15.3077 89.2236 15.271 89.0767 15.2185V13.973L89.4601 14.1009C89.5893 14.1433 89.7243 14.1649 89.8601 14.1649C90.0944 14.1763 90.3258 14.1094 90.5186 13.9747C90.7041 13.8237 90.8539 13.6328 90.957 13.4159L91.5054 12.029L88.2932 3.83213H89.7968L92.1638 10.5781H92.1955L94.4675 3.83213H95.8777L92.3522 13.16C92.1955 13.564 92.0421 13.9057 91.8888 14.1817C91.7558 14.4312 91.5867 14.6593 91.387 14.8583C91.2129 15.0281 91.0049 15.1583 90.777 15.2404C90.5267 15.3248 90.264 15.3658 90.0002 15.3616ZM97.3546 3.83213H103.969V12.0761H102.635V5.02884H98.6881V12.0761H97.3563V3.83213H97.3546ZM106.323 3.83213H107.656V7.1176H111.762V3.83213H113.095V12.0761H111.762V8.28233H107.656V12.0778H106.323V3.83213ZM118.944 12.2512C118.361 12.2644 117.781 12.1538 117.243 11.9263C116.771 11.7189 116.351 11.4085 116.012 11.0174C115.673 10.6193 115.417 10.1554 115.261 9.65408C115.09 9.10702 115.005 8.53615 115.011 7.96254C115.011 7.35661 115.094 6.79108 115.261 6.26257C115.416 5.75893 115.672 5.2927 116.012 4.8925C116.346 4.50538 116.756 4.19905 117.244 3.97688C117.78 3.74267 118.36 3.62785 118.944 3.64025C119.581 3.64025 120.145 3.75302 120.636 3.97688C121.128 4.19905 121.54 4.5037 121.875 4.8925C122.208 5.28131 122.458 5.73744 122.627 6.26426C122.793 6.79108 122.877 7.35661 122.877 7.96254C122.877 8.56846 122.793 9.13231 122.627 9.6524C122.46 10.1742 122.21 10.6286 121.875 11.0157C121.542 11.4045 121.128 11.7075 120.636 11.9246C120.101 12.1516 119.525 12.2628 118.944 12.2512ZM118.944 11.073C119.288 11.073 119.615 11.0023 119.925 10.8643C120.233 10.7262 120.501 10.5276 120.73 10.2651C120.96 10.0059 121.14 9.68101 121.27 9.29558C121.408 8.86534 121.475 8.41483 121.467 7.96254C121.467 7.46265 121.403 7.01998 121.271 6.6295C121.156 6.27025 120.972 5.9374 120.73 5.64991C120.509 5.39062 120.234 5.18372 119.925 5.04398C119.616 4.90578 119.282 4.83522 118.944 4.83696C118.606 4.83498 118.272 4.90555 117.963 5.04398C117.654 5.18368 117.379 5.39071 117.158 5.64991C116.915 5.93783 116.732 6.27133 116.617 6.63118C116.479 7.06081 116.412 7.51079 116.421 7.96254C116.421 8.46243 116.484 8.90509 116.616 9.29558C116.749 9.6827 116.927 10.0059 117.158 10.2667C117.381 10.5227 117.656 10.7271 117.964 10.866C118.272 11.0048 118.607 11.0749 118.944 11.0713V11.073ZM129.499 3.83213H133.245C133.6 3.83213 133.942 3.85906 134.272 3.91292C134.602 3.9651 134.895 4.0644 135.155 4.20747C135.417 4.34964 135.634 4.5623 135.784 4.82181C135.94 5.08775 136.019 5.42774 136.019 5.84179C136.019 6.28782 135.914 6.64969 135.705 6.92573C135.497 7.20176 135.205 7.43067 134.827 7.61244V7.62928C135.299 7.72353 135.67 7.94739 135.949 8.29748C136.225 8.64757 136.364 9.10033 136.364 9.6524C136.364 10.0042 136.304 10.3273 136.184 10.6253C136.069 10.9141 135.895 11.1752 135.674 11.3911C135.447 11.6079 135.181 11.7788 134.89 11.8943C134.576 12.0182 134.241 12.0799 133.903 12.0761H129.499V3.83213ZM133.652 10.9282C134.092 10.9282 134.422 10.7986 134.648 10.5394C134.877 10.2653 134.997 9.9148 134.984 9.55646C134.991 9.39038 134.962 9.22472 134.9 9.07077C134.838 8.91683 134.743 8.77822 134.623 8.6644C134.383 8.44055 133.982 8.32778 133.417 8.32778H130.816V10.9282H133.652ZM133.103 7.21354C133.678 7.21354 134.078 7.1075 134.302 6.89375C134.415 6.78541 134.503 6.65397 134.561 6.50824C134.62 6.36251 134.647 6.20587 134.64 6.04881C134.649 5.90026 134.623 5.75173 134.566 5.61461C134.509 5.47749 134.421 5.35541 134.31 5.25774C134.092 5.0726 133.688 4.98003 133.103 4.98003H130.815V7.21354H133.103Z" fill="white"/>
</svg>
