<svg width="166" height="50" viewBox="0 0 166 50" fill="none" xmlns="http://www.w3.org/2000/svg">
<path d="M29.3853 23.9439C29.4415 30.5064 34.9774 32.6743 35.0451 32.6995C35.0121 32.851 34.1795 35.8301 32.1012 38.8531C30.3666 41.5158 28.5494 44.1179 25.6634 44.1633C22.8615 44.2307 21.9182 42.4718 18.7034 42.4718C15.4589 42.4718 14.4545 44.1179 11.765 44.2307C9.01768 44.3333 6.91632 41.3895 5.12058 38.7521C1.52746 33.366 -1.2694 23.5702 2.47902 16.9084C4.29623 13.6414 7.61017 11.5358 11.1521 11.4786C13.9027 11.4214 16.455 13.3873 18.1467 13.3873C19.8037 13.3873 22.9623 11.0359 26.2168 11.3877C27.5813 11.4281 31.4553 11.9398 33.9548 15.6814C33.7533 15.8059 29.3374 18.4686 29.3853 23.9439ZM24.0906 7.84304C22.5824 9.6726 20.1688 11.0696 17.8163 10.8912C17.509 8.42372 18.7001 5.8014 20.0333 4.20074C21.5416 2.38464 24.1584 0.994376 26.2515 0.898438C26.5274 3.46185 25.5378 5.98654 24.0906 7.84304ZM67.375 43.7207H64.1338L62.3562 37.993H56.1843L54.4926 43.7207H51.3373L57.4514 24.2182H61.2262L67.3717 43.7207H67.375ZM61.8226 35.5895L60.2168 30.4963C60.045 29.9745 59.7279 28.7526 59.2587 26.822H59.2009C58.9165 28.0509 58.6158 29.2758 58.2989 30.4963L56.7212 35.5895H61.8226ZM83.1022 36.5169C83.1022 38.9086 82.4727 40.7988 81.2139 42.1873C80.0856 43.4211 78.6863 44.0388 77.0128 44.0388C75.2105 44.0388 73.9137 43.3739 73.124 42.0426H73.0662V49.4501H70.0232V34.2884C70.0232 32.782 69.9835 31.2419 69.9092 29.6598H72.5854L72.7573 31.8883H72.8151C73.8294 30.2085 75.3691 29.3703 77.4358 29.3703C79.0514 29.3703 80.4011 30.0267 81.4799 31.3362C82.562 32.649 83.1022 34.3759 83.1022 36.5169ZM80.003 36.6313C80.003 35.2629 79.7023 34.1319 79.0993 33.2482C78.4402 32.3208 77.558 31.8563 76.4512 31.8563C75.6979 31.8563 75.0189 32.1138 74.4076 32.6238C73.7964 33.1371 73.3966 33.8053 73.2099 34.6351C73.1263 34.946 73.0787 35.2657 73.0678 35.5878V37.9324C73.0678 38.9557 73.3735 39.8175 73.9847 40.5244C74.596 41.228 75.3889 41.5797 76.3669 41.5797C77.5118 41.5797 78.4022 41.1253 79.0415 40.2198C79.6825 39.3125 80.003 38.1158 80.003 36.6313ZM98.8574 36.5169C98.8574 38.9086 98.2296 40.7988 96.9675 42.1873C95.8441 43.4211 94.4416 44.0388 92.7714 44.0388C90.9658 44.0388 89.6689 43.3739 88.8809 42.0426H88.8231V49.4501H85.7834V34.2884C85.7834 32.782 85.7454 31.2419 85.671 29.6598H88.344L88.5142 31.8883H88.572C89.5847 30.2085 91.126 29.3703 93.1943 29.3703C94.81 29.3703 96.1564 30.0267 97.2384 31.3362C98.3172 32.649 98.8574 34.3759 98.8574 36.5169ZM95.7582 36.6313C95.7582 35.2629 95.4559 34.1319 94.8546 33.2482C94.1971 32.3208 93.3166 31.8563 92.2064 31.8563C91.4568 31.8565 90.7318 32.1286 90.1612 32.6238C89.55 33.1371 89.1535 33.8053 88.9652 34.6351C88.8826 34.9465 88.8346 35.2663 88.8231 35.5878V37.9324C88.8231 38.9557 89.1287 39.8175 89.7383 40.5244C90.3495 41.2263 91.1425 41.5797 92.1222 41.5797C93.2687 41.5797 94.1607 41.1253 94.7984 40.2198C95.4377 39.3125 95.7582 38.1158 95.7582 36.6313ZM116.474 38.2522C116.474 39.9101 115.914 41.2599 114.789 42.3018C113.55 43.4413 111.826 44.0102 109.612 44.0102C107.568 44.0102 105.928 43.6062 104.689 42.7949L105.394 40.1895C106.718 41.016 108.243 41.4475 109.795 41.435C110.94 41.435 111.832 41.169 112.473 40.6389C113.113 40.1087 113.43 39.3967 113.43 38.508C113.43 37.7169 113.167 37.0504 112.642 36.5101C112.116 35.9682 111.243 35.4649 110.02 35.0004C106.693 33.7279 105.031 31.863 105.031 29.409C105.031 27.805 105.614 26.4905 106.78 25.4705C107.943 24.4438 109.493 23.9321 111.431 23.9321C113.161 23.9321 114.596 24.2418 115.743 24.8578L114.983 27.4061C113.912 26.8086 112.703 26.509 111.347 26.509C110.276 26.509 109.44 26.7799 108.839 27.3186C108.333 27.8016 108.079 28.389 108.079 29.0858C108.079 29.855 108.368 30.4929 108.951 30.9945C109.457 31.4574 110.379 31.9589 111.715 32.5009C113.349 33.1742 114.55 33.9652 115.321 34.8708C116.091 35.7746 116.476 36.904 116.476 38.2522H116.474ZM126.539 32.0027H123.183V38.8312C123.183 40.5682 123.775 41.435 124.961 41.435C125.504 41.435 125.954 41.3845 126.312 41.2902L126.395 43.6634C125.795 43.8923 125.007 44.0085 124.029 44.0085C122.826 44.0085 121.888 43.6331 121.211 42.8808C120.533 42.1267 120.193 40.8627 120.193 39.0887V32.0027H118.194V29.6531H120.193V27.0779L123.183 26.1521V29.6531H126.537V32.0027H126.539ZM141.676 36.5741C141.676 38.7352 141.071 40.5109 139.87 41.8978C138.61 43.3268 136.936 44.0388 134.851 44.0388C132.841 44.0388 131.24 43.3537 130.046 41.9854C128.855 40.617 128.257 38.8884 128.257 36.8064C128.257 34.6267 128.871 32.8426 130.104 31.454C131.333 30.0654 132.991 29.3703 135.076 29.3703C137.087 29.3703 138.704 30.0553 139.925 31.4254C141.093 32.7551 141.676 34.4719 141.676 36.5741ZM138.517 36.6751C138.517 35.3791 138.248 34.2648 137.701 33.3391C137.062 32.2148 136.152 31.656 134.969 31.656C133.743 31.656 132.815 32.2181 132.177 33.3391C131.632 34.2665 131.361 35.3976 131.361 36.734C131.361 38.03 131.632 39.1426 132.178 40.07C132.834 41.1909 133.756 41.7531 134.941 41.7531C136.102 41.7531 137.016 41.1808 137.673 40.0397C138.235 39.0954 138.517 37.9694 138.517 36.6734V36.6751ZM151.568 32.405C151.252 32.3471 150.931 32.3189 150.61 32.3208C149.54 32.3208 148.71 32.7349 148.127 33.5663C147.622 34.2968 147.367 35.2242 147.367 36.3435V43.7207H144.324L144.352 34.0864C144.352 32.4656 144.314 30.9895 144.238 29.6598H146.89L147.002 32.3494H147.086C147.373 31.4741 147.9 30.7012 148.606 30.1227C149.242 29.6345 150.014 29.3703 150.807 29.3703C151.087 29.3703 151.342 29.3905 151.567 29.4275V32.4067H151.568V32.405ZM165.181 36.0237C165.181 36.5842 165.146 37.0555 165.068 37.4426H155.938C155.972 38.8312 156.415 39.8932 157.263 40.6254C158.032 41.2818 159.027 41.61 160.248 41.61C161.603 41.61 162.835 41.3879 163.945 40.9452L164.421 43.1131C163.126 43.6921 161.594 43.9816 159.828 43.9816C157.704 43.9816 156.037 43.3403 154.823 42.0577C153.612 40.7752 153.005 39.0533 153.005 36.8922C153.005 34.7715 153.57 33.0075 154.697 31.5988C155.882 30.094 157.477 29.3434 159.488 29.3434C161.462 29.3434 162.957 30.094 163.971 31.5988C164.776 32.7938 165.181 34.2716 165.181 36.0254V36.0237ZM162.278 35.2141C162.298 34.2884 162.1 33.4872 161.687 32.8123C161.161 31.9438 160.352 31.5079 159.26 31.5079C158.267 31.5079 157.458 31.9337 156.84 32.782C156.333 33.4569 156.03 34.2682 155.938 35.2108H162.278V35.2141ZM57.6331 17.0986C56.9723 17.0986 56.361 17.0195 55.7994 16.8596C55.2722 16.7167 54.7785 16.4677 54.3472 16.1274C53.9365 15.7952 53.6093 15.3683 53.3924 14.8819C53.1661 14.3837 53.0521 13.7879 53.0521 13.0978H54.4645C54.4744 13.6078 54.5703 14.0403 54.752 14.3955C54.9337 14.754 55.1699 15.0384 55.4673 15.2572C55.7614 15.476 56.1066 15.6326 56.4998 15.7285C56.893 15.8245 57.3126 15.8716 57.7586 15.8716C58.1403 15.8716 58.4987 15.816 58.8291 15.7033C59.143 15.6023 59.4371 15.439 59.6932 15.2253C60.197 14.8011 60.4861 14.1649 60.4762 13.495C60.4762 13.0809 60.3986 12.7443 60.2433 12.4851C60.095 12.2316 59.8836 12.0226 59.6304 11.8792C59.3543 11.7276 59.0539 11.6273 58.7432 11.583C58.3917 11.5283 58.0366 11.5013 57.681 11.5022C57.3493 11.5052 57.0177 11.5164 56.6865 11.5358V10.2903C56.8104 10.3122 56.9756 10.324 57.1821 10.324H57.681C58.0329 10.324 58.355 10.2869 58.6524 10.2179C58.9448 10.1489 59.1976 10.0362 59.4123 9.87626C59.6275 9.71221 59.7981 9.49498 59.9079 9.24509C60.0285 8.9842 60.088 8.66441 60.088 8.28065C60.0986 7.97682 60.032 7.67535 59.8947 7.40542C59.7681 7.17408 59.5863 6.979 59.3661 6.83821C59.1325 6.69003 58.8753 6.58465 58.6061 6.52683C58.3119 6.46243 58.0117 6.43082 57.7107 6.43257C56.893 6.43257 56.2504 6.61435 55.7845 6.98127C55.3186 7.34988 55.0444 7.94739 54.9618 8.77549H53.5477C53.5691 8.16957 53.6897 7.64106 53.9144 7.1883C54.1374 6.73722 54.4332 6.36693 54.8065 6.07238C55.1995 5.77053 55.6443 5.54619 56.1182 5.41091C56.6221 5.2628 57.1672 5.18874 57.7586 5.18874C58.2873 5.18874 58.7796 5.24765 59.2422 5.37052C59.7031 5.49507 60.1029 5.6819 60.4448 5.93773C60.7868 6.19189 61.0561 6.51337 61.2543 6.90385C61.4492 7.29097 61.5484 7.75047 61.5484 8.28065C61.5484 8.59035 61.4955 8.87648 61.3931 9.14242C61.2468 9.51997 61.0205 9.85996 60.7304 10.1381C60.4403 10.4163 60.0934 10.6257 59.7146 10.7515V10.802C60.0549 10.8659 60.3804 10.9922 60.6777 11.174C61.2097 11.4988 61.6078 12.0138 61.7962 12.6181C61.8903 12.916 61.9366 13.219 61.9366 13.527C61.9091 14.3981 61.5557 15.2255 60.9487 15.8396C60.5661 16.2254 60.1133 16.5313 59.6155 16.7401C59.0703 16.9808 58.4095 17.0986 57.6331 17.0986ZM66.1955 17.0195C65.8505 17.0209 65.5067 16.9802 65.1712 16.8983C64.8656 16.826 64.5778 16.6909 64.3254 16.5011C64.0787 16.3131 63.8803 16.0671 63.7472 15.7841C63.5996 15.4513 63.5284 15.0887 63.539 14.7237C63.539 14.2558 63.6167 13.8737 63.772 13.5758C63.9273 13.2779 64.1321 13.0372 64.3849 12.8487C64.6496 12.6582 64.9447 12.5158 65.2571 12.4279C65.5865 12.3305 65.9207 12.2507 66.2583 12.1889C66.6217 12.1131 66.9653 12.0593 67.2924 12.0206C67.6179 11.9835 67.9037 11.9314 68.1515 11.8607C68.3691 11.8081 68.5717 11.7044 68.7429 11.5577C68.8883 11.4231 68.9609 11.2312 68.9609 10.977C68.9718 10.7265 68.9146 10.4779 68.7957 10.2583C68.6951 10.0855 68.5515 9.94266 68.3794 9.84428C68.1996 9.74537 68.0037 9.68036 67.8012 9.6524C67.5934 9.62112 67.3836 9.60537 67.1735 9.60528C66.6151 9.60528 66.1492 9.713 65.7759 9.93012C65.4042 10.1506 65.201 10.5613 65.1712 11.1672H63.8496C63.8552 10.7184 63.9615 10.2769 64.1602 9.87626C64.3469 9.52449 64.5963 9.24172 64.9069 9.02123C65.2296 8.79864 65.5905 8.63991 65.9708 8.55332C66.3673 8.45738 66.7968 8.40857 67.2528 8.40857C67.6146 8.40857 67.973 8.4355 68.3315 8.48936C68.69 8.54154 69.0122 8.64926 69.3029 8.8142C69.592 8.98252 69.8249 9.21142 70.0017 9.50934C70.1768 9.80725 70.266 10.1944 70.266 10.6741V14.9156C70.266 15.2337 70.2826 15.4676 70.3205 15.6157C70.3536 15.7655 70.4775 15.8396 70.684 15.8396C70.8218 15.8317 70.9579 15.8051 71.0887 15.7605V16.8124C70.8608 16.9505 70.5436 17.0195 70.1405 17.0195C69.8412 17.0347 69.5482 16.9281 69.326 16.7232C69.1228 16.528 69.0221 16.2065 69.0221 15.7605C68.6867 16.1863 68.2506 16.5179 67.7566 16.7232C67.26 16.9242 66.7298 17.0248 66.1955 17.0195ZM66.4912 15.8396C66.9257 15.8396 67.299 15.779 67.6096 15.6545C67.8892 15.5517 68.1471 15.3958 68.3695 15.195C68.5545 15.0266 68.7032 14.8179 68.8057 14.5873C68.8927 14.395 68.94 14.1865 68.9444 13.9747V12.5861C68.7537 12.7353 68.5294 12.8336 68.2919 12.8722C68.0226 12.9261 67.7401 12.9732 67.4477 13.017L66.5523 13.1449C66.2742 13.1814 66.0024 13.2567 65.7445 13.3688C65.5155 13.4676 65.3148 13.6239 65.1613 13.8232C65.0126 14.0201 64.9383 14.2877 64.9383 14.6277C64.9383 14.8516 64.9812 15.0384 65.0704 15.195C65.1549 15.3445 65.2719 15.4724 65.4124 15.5686C65.5611 15.6696 65.7263 15.7369 65.8998 15.7756C66.0864 15.8177 66.283 15.8396 66.4912 15.8396ZM72.6912 8.60045H78.1907V9.79547H74.0112V16.8444H72.6912V8.60045ZM79.6379 8.60045H80.9595V9.71636H80.9893C81.2073 9.26023 81.5493 8.92866 82.0151 8.71827C82.481 8.51124 82.9931 8.40857 83.5515 8.40857C84.1743 8.40857 84.7145 8.52639 85.1754 8.76035C85.638 8.9943 86.0213 9.30905 86.3252 9.70963C86.6325 10.1085 86.8622 10.568 87.0174 11.0881C87.1727 11.6099 87.2487 12.162 87.2487 12.746C87.2487 13.3418 87.176 13.8973 87.0257 14.4123C86.8863 14.9052 86.6533 15.3656 86.3401 15.7672C86.0295 16.1594 85.6364 16.4741 85.1903 16.6845C84.6865 16.9175 84.1378 17.0326 83.5846 17.0212C83.1112 17.0168 82.6426 16.9244 82.2018 16.7485C81.9594 16.6509 81.7315 16.5195 81.5245 16.358C81.3097 16.1897 81.128 15.9827 80.9893 15.7437H80.9595V19.9851H79.6379V8.60213V8.60045ZM83.4441 15.8396C83.8902 15.8396 84.2668 15.7487 84.5774 15.5686C84.888 15.3885 85.1375 15.1478 85.3241 14.8516C85.5108 14.5537 85.6446 14.212 85.7272 13.8299C85.8098 13.4428 85.8528 13.0473 85.8511 12.6517C85.8511 12.2714 85.8016 11.8943 85.7024 11.5274C85.6119 11.1757 85.4603 10.8434 85.2547 10.5461C85.0414 10.2419 84.7571 9.99641 84.4275 9.83187C84.0979 9.66734 83.7333 9.58889 83.3665 9.60359C82.9204 9.60359 82.5438 9.69448 82.2332 9.87626C81.9297 10.0495 81.6691 10.2913 81.4716 10.5832C81.2697 10.8865 81.1252 11.2256 81.0454 11.583C80.8637 12.3404 80.867 13.1298 81.052 13.8855C81.1445 14.2642 81.2932 14.5958 81.4948 14.8836C81.698 15.1697 81.9573 15.4003 82.2795 15.5753C82.6 15.7521 82.9898 15.8396 83.4441 15.8396ZM89.9712 20.1282C89.8159 20.1282 89.6607 20.1181 89.5054 20.0962C89.3516 20.0756 89.2004 20.0384 89.0544 19.9851V18.7413L89.4343 18.8692C89.5624 18.9116 89.6962 18.9332 89.8308 18.9332C90.0633 18.9452 90.293 18.8777 90.4834 18.7413C90.6677 18.591 90.8167 18.4007 90.9195 18.1842L91.463 16.7956L88.2779 8.59877H89.7697L92.1155 15.3448H92.1469L94.3986 8.60045H95.7962L92.3022 17.9284C92.1469 18.3323 91.9949 18.6723 91.843 18.9483C91.7108 19.1991 91.5456 19.428 91.3474 19.625C91.174 19.7957 90.9667 19.9266 90.7394 20.0087C90.4918 20.0924 90.2321 20.1328 89.9712 20.1282ZM100.21 17.0195C99.1449 17.0195 98.3106 16.7754 97.7109 16.2856C97.1096 15.7975 96.7841 15.1007 96.7313 14.1985H98.0677C98.109 14.8045 98.3271 15.2387 98.7203 15.5047C99.1135 15.7706 99.6058 15.9036 100.196 15.9036C100.827 15.9036 101.314 15.7655 101.656 15.4895C101.817 15.3679 101.948 15.2089 102.037 15.0257C102.126 14.8425 102.171 14.6403 102.168 14.4359C102.168 14.0218 102.039 13.697 101.78 13.463C101.52 13.2291 101.081 13.1129 100.458 13.1129H99.3877V12.0122H100.242C100.708 12.0122 101.107 11.9145 101.438 11.7193C101.768 11.5207 101.935 11.179 101.935 10.6892C101.935 10.3812 101.793 10.1102 101.507 9.87626C101.223 9.64062 100.802 9.52449 100.242 9.52449C100.004 9.52449 99.7693 9.55142 99.5347 9.60528C99.313 9.65378 99.1009 9.73968 98.907 9.85943C98.7202 9.97695 98.5611 10.135 98.4411 10.3223C98.3099 10.5341 98.23 10.7747 98.2082 11.0242H96.87C96.9031 10.5142 97.022 10.0917 97.2285 9.75508C97.4245 9.43298 97.6901 9.1607 98.005 8.95895C98.3155 8.76371 98.6674 8.62233 99.0623 8.53817C99.4553 8.45211 99.8563 8.40867 100.258 8.40857C100.671 8.40857 101.06 8.45233 101.423 8.53649C101.786 8.62064 102.102 8.7553 102.378 8.94381C102.654 9.12895 102.868 9.36122 103.032 9.63726C103.192 9.91329 103.272 10.2432 103.272 10.6253C103.272 11.1033 103.139 11.4921 102.875 11.79C102.642 12.0677 102.33 12.2629 101.983 12.3471V12.3808C102.168 12.4111 102.355 12.475 102.541 12.571C102.729 12.6671 102.898 12.7991 103.037 12.9598C103.182 13.1281 103.301 13.3267 103.395 13.5657C103.488 13.8081 103.536 14.0858 103.536 14.4039C103.554 15.2017 103.166 15.9524 102.51 16.3816C102.184 16.6009 101.825 16.7625 101.446 16.8596C101.043 16.9665 100.627 17.0202 100.21 17.0195ZM105.464 8.60045H106.785V15.3296L110.575 8.60045H112.268V16.8444H110.947V10.1153L107.157 16.8444H105.465V8.60045H105.464ZM116.544 9.79547H113.669V8.60045H120.737V9.79547H117.862V16.8444H116.544V9.79547ZM125.556 17.0195C124.978 17.0321 124.405 16.9233 123.871 16.6997C123.408 16.5011 122.995 16.1947 122.666 15.8076C122.336 15.4058 122.091 14.9388 121.946 14.4359C121.779 13.8727 121.698 13.287 121.703 12.6989C121.703 12.0812 121.797 11.5106 121.984 10.9854C122.169 10.4569 122.432 10.0042 122.769 9.62211C123.108 9.2333 123.526 8.92375 123.993 8.71459C124.461 8.50544 124.967 8.40163 125.478 8.41025C126.193 8.41025 126.785 8.56005 127.256 8.86302C127.728 9.16598 128.105 9.5531 128.39 10.0193C128.676 10.4872 128.873 10.9972 128.982 11.551C129.091 12.103 129.134 12.6282 129.114 13.1281H123.101C123.091 13.4899 123.134 13.8316 123.226 14.1565C123.314 14.4785 123.471 14.7766 123.686 15.0291C123.901 15.2815 124.168 15.4819 124.469 15.6157C124.789 15.7655 125.167 15.8396 125.602 15.8396C126.162 15.8396 126.621 15.7066 126.976 15.4407C127.335 15.1748 127.571 14.7708 127.683 14.2288H128.988C128.813 15.1647 128.423 15.8615 127.824 16.326C127.222 16.7872 126.468 17.0195 125.556 17.0195ZM127.715 11.933C127.696 11.6203 127.626 11.3131 127.507 11.0242C127.335 10.6001 127.043 10.2382 126.667 9.9853C126.292 9.73236 125.85 9.59998 125.4 9.60528C125.058 9.60528 124.751 9.66587 124.477 9.79042C124.211 9.90487 123.97 10.0766 123.77 10.2903C123.572 10.5024 123.418 10.7515 123.304 11.0309C123.188 11.317 123.121 11.6234 123.102 11.933H127.715ZM135.487 8.60045H139.201C139.553 8.60045 139.892 8.62738 140.219 8.67955C140.546 8.73342 140.837 8.83104 141.094 8.97579C141.354 9.11749 141.569 9.32955 141.717 9.58844C141.872 9.85438 141.948 10.1944 141.948 10.6101C141.948 11.0561 141.846 11.418 141.64 11.694C141.431 11.9701 141.142 12.199 140.769 12.3791V12.3959C141.235 12.4918 141.605 12.7157 141.881 13.0658C142.155 13.4159 142.292 13.867 142.292 14.4207C142.292 14.7708 142.233 15.094 142.112 15.3936C141.999 15.6817 141.827 15.9421 141.608 16.1577C141.383 16.3751 141.12 16.5466 140.832 16.6626C140.52 16.7857 140.188 16.8474 139.854 16.8444H135.487V8.60045ZM139.604 15.6965C140.039 15.6965 140.368 15.5669 140.592 15.306C140.819 15.0323 140.937 14.6825 140.924 14.3248C140.931 14.1587 140.903 13.993 140.841 13.8391C140.78 13.6851 140.686 13.5465 140.567 13.4327C140.33 13.2089 139.931 13.0961 139.371 13.0961H136.794V15.6965H139.604ZM139.061 11.9802C139.631 11.9802 140.027 11.8741 140.249 11.6604C140.36 11.5521 140.447 11.4208 140.505 11.2754C140.562 11.13 140.589 10.9738 140.582 10.8171C140.591 10.6687 140.566 10.5203 140.51 10.3832C140.453 10.246 140.367 10.1239 140.257 10.0261C140.039 9.84092 139.641 9.74834 139.061 9.74834H136.793V11.9802H139.061Z" fill="white"/>
</svg>
